<?xml version="1.0" encoding="UTF-8"?><svg id="Calque_2" xmlns="http://www.w3.org/2000/svg" xmlns:xlink="http://www.w3.org/1999/xlink" viewBox="0 0 34.16 37.93"><defs><style>.cls-1{fill:url(#linear-gradient);}</style><linearGradient id="linear-gradient" x1="0" y1="18.97" x2="34.16" y2="18.97" gradientUnits="userSpaceOnUse"><stop offset="0" stop-color="#373766"/><stop offset="1" stop-color="#19193d"/></linearGradient></defs><g id="Layer_1"><path class="cls-1" d="M0,36.18V5.52c0-.97,.79-1.76,1.76-1.76H3.83c.93,0,1.7-.72,1.76-1.65l.03-.43C5.67,.75,6.43,.03,7.36,.03h.25c.97,0,1.76,.79,1.76,1.76h0c0,.97,.79,1.76,1.76,1.76h11.83c.94,0,1.71-.73,1.76-1.67v-.21c.06-.93,.83-1.67,1.77-1.67h.29c.94,0,1.71,.74,1.76,1.68l.02,.34c.04,.93,.82,1.67,1.76,1.67h2.1c.97,0,1.76,.79,1.76,1.76v30.74c0,.97-.79,1.76-1.76,1.76H1.76c-.97,0-1.76-.79-1.76-1.76ZM3.86,15.14v17.21c0,.97,.79,1.76,1.76,1.76H28.58c.97,0,1.76-.79,1.76-1.76V15.14c0-.97-.79-1.76-1.76-1.76H5.62c-.97,0-1.76,.79-1.76,1.76Z"/></g></svg>