<svg xmlns="http://www.w3.org/2000/svg" width="16.898" height="22.692" viewBox="0 0 16.898 22.692">
  <g id="Layer_1" transform="translate(0.001)">
    <path id="Tracé_27" data-name="Tracé 27" d="M8.45,0c3,4.342,5.545,7.51,7.495,11.005,1.934,3.464.792,7.355-2.237,9.794a8.266,8.266,0,0,1-10.5.023C.171,18.383-.987,14.485.947,11.036,2.9,7.534,5.444,4.357,8.45,0Zm0,1.856C5.949,5.755,3.3,9.18,1.708,12.093c-1.615,2.951-.443,5.538,1.973,7.448,2.625,2.074,6.252,2.765,8.869.683,2.408-1.918,4.272-5.2,2.648-8.147-1.608-2.9-4.248-6.322-6.741-10.213Z" transform="translate(0)" fill="#fff"/>
  </g>
</svg>
