<?xml version="1.0" encoding="UTF-8"?><svg id="Calque_2" xmlns="http://www.w3.org/2000/svg" viewBox="0 0 63.58 62.42"><defs><style>.cls-1{fill:#fff;}</style></defs><g id="Calque_1-2"><g id="Layer_1"><path id="Tracé_27" class="cls-1" d="M40.89,0c3,4.34,5.55,7.51,7.49,11.01,1.93,3.46,.79,7.36-2.24,9.79-3.05,2.52-7.44,2.52-10.5,.02-3.04-2.44-4.2-6.34-2.26-9.79,1.95-3.5,4.5-6.68,7.5-11.04Zm0,1.86c-2.5,3.9-5.15,7.32-6.74,10.24-1.62,2.95-.44,5.54,1.97,7.45,2.62,2.07,6.25,2.76,8.87,.68,2.41-1.92,4.27-5.2,2.65-8.15-1.61-2.9-4.25-6.32-6.74-10.21h0Z"/></g><g id="Layer_1-2"><path id="Tracé_27-2" class="cls-1" d="M20.56,19.74c3,4.34,5.55,7.51,7.49,11.01,1.93,3.46,.79,7.36-2.24,9.79-3.05,2.52-7.44,2.52-10.5,.02-3.04-2.44-4.2-6.34-2.26-9.79,1.95-3.5,4.5-6.68,7.5-11.04Zm0,1.86c-2.5,3.9-5.15,7.32-6.74,10.24-1.62,2.95-.44,5.54,1.97,7.45,2.62,2.07,6.25,2.76,8.87,.68,2.41-1.92,4.27-5.2,2.65-8.15-1.61-2.9-4.25-6.32-6.74-10.21h0Z"/></g><g id="Layer_1-3"><path id="Tracé_27-3" class="cls-1" d="M36.38,39.73c3,4.34,5.55,7.51,7.49,11.01,1.93,3.46,.79,7.36-2.24,9.79-3.05,2.52-7.44,2.52-10.5,.02-3.04-2.44-4.2-6.34-2.26-9.79,1.95-3.5,4.5-6.68,7.5-11.04Zm0,1.86c-2.5,3.9-5.15,7.32-6.74,10.24-1.62,2.95-.44,5.54,1.97,7.45,2.62,2.07,6.25,2.76,8.87,.68,2.41-1.92,4.27-5.2,2.65-8.15-1.61-2.9-4.25-6.32-6.74-10.21h0Z"/></g><rect class="cls-1" x="0" y="9.97" width="30.44" height="7.66" rx="3.83" ry="3.83"/><rect class="cls-1" x="51.34" y="9.97" width="12.23" height="7.66" rx="3.83" ry="3.83"/><rect class="cls-1" x="31.01" y="30.11" width="32.56" height="7.66" rx="3.83" ry="3.83"/><rect class="cls-1" x="0" y="30.11" width="10.11" height="7.66" rx="3.83" ry="3.83"/><rect class="cls-1" x="0" y="50.19" width="25.92" height="7.66" rx="3.83" ry="3.83"/><rect class="cls-1" x="46.82" y="50.19" width="16.71" height="7.66" rx="3.83" ry="3.83"/></g></svg>