<?xml version="1.0" encoding="UTF-8"?><svg id="Calque_2" xmlns="http://www.w3.org/2000/svg" xmlns:xlink="http://www.w3.org/1999/xlink" viewBox="0 0 44.03 44.03"><defs><style>.cls-1{fill:url(#linear-gradient);}</style><linearGradient id="linear-gradient" x1="0" y1="22.01" x2="44.03" y2="22.01" gradientUnits="userSpaceOnUse"><stop offset="0" stop-color="#373766"/><stop offset="1" stop-color="#19193d"/></linearGradient></defs><g id="Layer_1"><g id="surface111662754"><path class="cls-1" d="M18.33,0C8.23,0,0,8.23,0,18.33s8.23,18.33,18.33,18.33c4.39,0,8.43-1.56,11.59-4.15l10.95,10.95c.46,.48,1.14,.67,1.79,.5,.64-.17,1.14-.67,1.31-1.31,.17-.64-.03-1.33-.5-1.79l-10.95-10.95c2.59-3.16,4.15-7.2,4.15-11.59C36.67,8.23,28.44,0,18.33,0Zm0,3.67c8.12,0,14.67,6.55,14.67,14.67s-6.55,14.67-14.67,14.67S3.67,26.46,3.67,18.33,10.21,3.67,18.33,3.67Z"/></g></g></svg>