<?xml version="1.0" encoding="UTF-8"?><svg id="Calque_2" xmlns="http://www.w3.org/2000/svg" viewBox="0 0 105.25 105.25"><defs><style>.cls-1{fill:#fffdfd;}</style></defs><g id="Layer_1"><g><path class="cls-1" d="M52.63,81.72c-16.04,0-29.09-13.05-29.09-29.09s13.05-29.09,29.09-29.09,29.09,13.05,29.09,29.09-13.05,29.09-29.09,29.09Zm0-56.19c-14.94,0-27.09,12.15-27.09,27.09s12.15,27.09,27.09,27.09,27.09-12.15,27.09-27.09-12.15-27.09-27.09-27.09Z"/><path class="cls-1" d="M52.63,17.05c-.55,0-1-.45-1-1V1c0-.55,.45-1,1-1s1,.45,1,1v15.05c0,.55-.45,1-1,1Z"/><path class="cls-1" d="M34.34,21.95c-.35,0-.68-.18-.87-.5l-7.52-13.03c-.28-.48-.11-1.09,.37-1.37,.48-.28,1.09-.11,1.37,.37l7.52,13.03c.28,.48,.11,1.09-.37,1.37-.16,.09-.33,.13-.5,.13Z"/><path class="cls-1" d="M20.95,35.34c-.17,0-.34-.04-.5-.13l-13.03-7.52c-.48-.28-.64-.89-.37-1.37,.28-.48,.89-.64,1.37-.37l13.03,7.52c.48,.28,.64,.89,.37,1.37-.19,.32-.52,.5-.87,.5Z"/><path class="cls-1" d="M16.05,53.63H1c-.55,0-1-.45-1-1s.45-1,1-1h15.05c.55,0,1,.45,1,1s-.45,1-1,1Z"/><path class="cls-1" d="M7.92,79.44c-.35,0-.68-.18-.87-.5-.28-.48-.11-1.09,.37-1.37l13.03-7.52c.48-.28,1.09-.11,1.37,.37,.28,.48,.11,1.09-.37,1.37l-13.03,7.52c-.16,.09-.33,.13-.5,.13Z"/><path class="cls-1" d="M26.81,98.34c-.17,0-.34-.04-.5-.13-.48-.28-.64-.89-.37-1.37l7.52-13.03c.28-.48,.89-.64,1.37-.37,.48,.28,.64,.89,.37,1.37l-7.52,13.03c-.19,.32-.52,.5-.87,.5Z"/><path class="cls-1" d="M52.63,105.25c-.55,0-1-.45-1-1v-15.05c0-.55,.45-1,1-1s1,.45,1,1v15.05c0,.55-.45,1-1,1Z"/><path class="cls-1" d="M78.44,98.34c-.35,0-.68-.18-.87-.5l-7.52-13.03c-.28-.48-.11-1.09,.37-1.37,.48-.28,1.09-.11,1.37,.37l7.52,13.03c.28,.48,.11,1.09-.37,1.37-.16,.09-.33,.13-.5,.13Z"/><path class="cls-1" d="M97.34,79.44c-.17,0-.34-.04-.5-.13l-13.03-7.52c-.48-.28-.64-.89-.37-1.37,.28-.48,.89-.64,1.37-.37l13.03,7.52c.48,.28,.64,.89,.37,1.37-.19,.32-.52,.5-.87,.5Z"/><path class="cls-1" d="M104.25,53.63h-15.05c-.55,0-1-.45-1-1s.45-1,1-1h15.05c.55,0,1,.45,1,1s-.45,1-1,1Z"/><path class="cls-1" d="M84.31,35.34c-.35,0-.68-.18-.87-.5-.28-.48-.11-1.09,.37-1.37l13.03-7.52c.48-.28,1.09-.11,1.37,.37,.28,.48,.11,1.09-.37,1.37l-13.03,7.52c-.16,.09-.33,.13-.5,.13Z"/><path class="cls-1" d="M70.92,21.95c-.17,0-.34-.04-.5-.13-.48-.28-.64-.89-.37-1.37l7.52-13.03c.28-.48,.89-.64,1.37-.37,.48,.28,.64,.89,.37,1.37l-7.52,13.03c-.19,.32-.52,.5-.87,.5Z"/></g></g></svg>