<?xml version="1.0" encoding="UTF-8"?><svg id="Calque_2" xmlns="http://www.w3.org/2000/svg" xmlns:xlink="http://www.w3.org/1999/xlink" viewBox="0 0 785.34 1369.13"><defs><style>.cls-1{fill:url(#Dégradé_sans_nom_20);}.cls-2{fill:url(#Dégradé_sans_nom_12-6);}.cls-3{fill:url(#Dégradé_sans_nom_12-2);}.cls-4{fill:url(#Dégradé_sans_nom_12);}.cls-5{fill:url(#Dégradé_sans_nom_24-2);}.cls-6{fill:url(#Dégradé_sans_nom_20-7);}.cls-7{fill:url(#Dégradé_sans_nom_12-5);}.cls-8{fill:url(#Dégradé_sans_nom_12-3);}.cls-9{fill:url(#Dégradé_sans_nom_26);}.cls-10{fill:url(#Dégradé_sans_nom);}.cls-11{fill:url(#Dégradé_sans_nom_20-6);}.cls-12{fill:#fbf8f1;isolation:isolate;opacity:.5;}.cls-13{fill:url(#Dégradé_sans_nom_25);}.cls-14{fill:url(#Dégradé_sans_nom_24);}.cls-15{fill:url(#Dégradé_sans_nom_3-2);}.cls-16{fill:url(#Dégradé_sans_nom_27);}.cls-17{fill:url(#Dégradé_sans_nom_12-7);}.cls-18{fill:url(#Dégradé_sans_nom_3);}.cls-19{fill:url(#Dégradé_sans_nom_20-5);}.cls-20{fill:url(#Dégradé_sans_nom_4);}.cls-21{fill:url(#Dégradé_sans_nom_20-3);}.cls-22{fill:url(#Dégradé_sans_nom_22-2);}.cls-23{fill:url(#Dégradé_sans_nom_20-4);}.cls-24{fill:url(#Dégradé_sans_nom_20-2);}.cls-25{fill:url(#Dégradé_sans_nom_28);}.cls-26{fill:url(#Dégradé_sans_nom_6);}.cls-27{fill:url(#Dégradé_sans_nom_22);}.cls-28{fill:url(#Dégradé_sans_nom_12-4);}.cls-29{fill:url(#Dégradé_sans_nom_20-8);}</style><linearGradient id="Dégradé_sans_nom" x1="393.24" y1="736.35" x2="393.24" y2="1337.25" gradientTransform="translate(0 1367.89) scale(1 -1)" gradientUnits="userSpaceOnUse"><stop offset="0" stop-color="#fff5dc"/><stop offset="1" stop-color="#f46494"/></linearGradient><linearGradient id="Dégradé_sans_nom_3" x1="431.03" y1="802.59" x2="463.55" y2="920.37" gradientTransform="translate(0 1367.89) scale(1 -1)" gradientUnits="userSpaceOnUse"><stop offset="0" stop-color="#f495a9"/><stop offset="1" stop-color="#e0688d"/></linearGradient><linearGradient id="Dégradé_sans_nom_3-2" x1="116.85" y1="1013.69" x2="146.08" y2="1113.23" xlink:href="#Dégradé_sans_nom_3"/><linearGradient id="Dégradé_sans_nom_4" x1="314.08" y1="799.61" x2="371.56" y2="905.49" gradientTransform="translate(0 1367.89) scale(1 -1)" gradientUnits="userSpaceOnUse"><stop offset="0" stop-color="#e879a6"/><stop offset="1" stop-color="#cc5c8a"/></linearGradient><linearGradient id="Dégradé_sans_nom_12" x1="222.98" y1="892.72" x2="222.98" y2="741.42" gradientTransform="translate(0 1367.89) scale(1 -1)" gradientUnits="userSpaceOnUse"><stop offset="0" stop-color="#d86498"/><stop offset="1" stop-color="#b74e7e"/></linearGradient><linearGradient id="Dégradé_sans_nom_6" x1="393.24" y1="701.22" x2="393.24" y2="551.8" gradientTransform="translate(0 1367.89) scale(1 -1)" gradientUnits="userSpaceOnUse"><stop offset="0" stop-color="#fcb6dc"/><stop offset="1" stop-color="#e2a3e2"/></linearGradient><linearGradient id="Dégradé_sans_nom_12-2" x1="-524.07" y1="1324.72" x2="76.82" y2="1324.72" xlink:href="#Dégradé_sans_nom_12"/><linearGradient id="Dégradé_sans_nom_12-3" x1="-296.98" y1="1409.06" x2="-295.96" y2="1409.06" gradientTransform="translate(-830337.32 -174413.67) rotate(-90) scale(589.41)" xlink:href="#Dégradé_sans_nom_12"/><linearGradient id="Dégradé_sans_nom_12-4" x1="-296.98" y1="1409.59" x2="-295.96" y2="1409.59" gradientTransform="translate(-830337.32 -174413.67) rotate(-90) scale(589.41)" xlink:href="#Dégradé_sans_nom_12"/><linearGradient id="Dégradé_sans_nom_12-5" x1="-296.98" y1="1409.95" x2="-295.96" y2="1409.95" gradientTransform="translate(-830337.32 -174413.67) rotate(-90) scale(589.41)" xlink:href="#Dégradé_sans_nom_12"/><linearGradient id="Dégradé_sans_nom_12-6" x1="-296.98" y1="1409.24" x2="-295.96" y2="1409.24" gradientTransform="translate(-830337.32 -174413.67) rotate(-90) scale(589.41)" xlink:href="#Dégradé_sans_nom_12"/><linearGradient id="Dégradé_sans_nom_12-7" x1="-296.98" y1="1409.7" x2="-295.96" y2="1409.7" gradientTransform="translate(-830337.32 -174413.67) rotate(-90) scale(589.41)" xlink:href="#Dégradé_sans_nom_12"/><linearGradient id="Dégradé_sans_nom_20" x1="-296.58" y1="1397.95" x2="-295.56" y2="1397.95" gradientTransform="translate(215784.76 46408.5) rotate(90) scale(154.17)" gradientUnits="userSpaceOnUse"><stop offset="0" stop-color="#fccee4"/><stop offset="1" stop-color="#ebc2e8"/></linearGradient><linearGradient id="Dégradé_sans_nom_20-2" y1="1398.01" y2="1398.01" xlink:href="#Dégradé_sans_nom_20"/><linearGradient id="Dégradé_sans_nom_20-3" y1="1395.49" y2="1395.49" xlink:href="#Dégradé_sans_nom_20"/><linearGradient id="Dégradé_sans_nom_20-4" y1="1394.88" y2="1394.88" xlink:href="#Dégradé_sans_nom_20"/><linearGradient id="Dégradé_sans_nom_20-5" y1="1397.13" y2="1397.13" xlink:href="#Dégradé_sans_nom_20"/><linearGradient id="Dégradé_sans_nom_20-6" y1="1397.4" y2="1397.4" xlink:href="#Dégradé_sans_nom_20"/><linearGradient id="Dégradé_sans_nom_20-7" y1="1398.63" y2="1398.63" xlink:href="#Dégradé_sans_nom_20"/><linearGradient id="Dégradé_sans_nom_20-8" y1="1396.91" y2="1396.91" xlink:href="#Dégradé_sans_nom_20"/><linearGradient id="Dégradé_sans_nom_22" x1="348.69" y1="324.02" x2="348.69" y2="523.91" gradientTransform="translate(0 1367.89) scale(1 -1)" gradientUnits="userSpaceOnUse"><stop offset="0" stop-color="#9e4373"/><stop offset="1" stop-color="#662e55"/></linearGradient><linearGradient id="Dégradé_sans_nom_22-2" x1="87.41" y1="686.27" x2="87.41" y2="562.13" xlink:href="#Dégradé_sans_nom_22"/><linearGradient id="Dégradé_sans_nom_24" x1="393.25" y1="816.11" x2="393.25" y2="1482.26" gradientTransform="translate(0 1367.89) scale(1 -1)" gradientUnits="userSpaceOnUse"><stop offset="0" stop-color="#66305c"/><stop offset="1" stop-color="#421a3a"/></linearGradient><linearGradient id="Dégradé_sans_nom_24-2" x1="392.67" y1="-4.68" x2="392.67" y2="482.27" xlink:href="#Dégradé_sans_nom_24"/><linearGradient id="Dégradé_sans_nom_25" x1="650.54" y1="774.84" x2="650.54" y2="566" gradientTransform="translate(0 1367.89) scale(1 -1)" gradientUnits="userSpaceOnUse"><stop offset=".09" stop-color="#66305c"/><stop offset="1" stop-color="#421a3a"/></linearGradient><linearGradient id="Dégradé_sans_nom_26" x1="484.33" y1="766.95" x2="484.33" y2="561.64" gradientTransform="translate(0 1367.89) scale(1 -1)" gradientUnits="userSpaceOnUse"><stop offset="0" stop-color="#bc5e94"/><stop offset=".03" stop-color="#b65a90"/><stop offset=".16" stop-color="#934879"/><stop offset=".29" stop-color="#7a3a69"/><stop offset=".4" stop-color="#6b325f"/><stop offset=".49" stop-color="#66305c"/><stop offset="1" stop-color="#421a3a"/></linearGradient><linearGradient id="Dégradé_sans_nom_27" x1="-296.77" y1="1411.32" x2="-296.25" y2="1411.32" gradientTransform="translate(-831237.43 -174380.67) rotate(-90) scale(589.41)" gradientUnits="userSpaceOnUse"><stop offset="0" stop-color="#fef6e1"/><stop offset="1" stop-color="#f687aa"/></linearGradient><linearGradient id="Dégradé_sans_nom_28" x1="-296.77" y1="1411.32" x2="-296.25" y2="1411.32" gradientTransform="translate(-831237.43 -174380.67) rotate(-90) scale(589.41)" gradientUnits="userSpaceOnUse"><stop offset="0" stop-color="#fdf6e5"/><stop offset="1" stop-color="#f7a2bb"/></linearGradient></defs><g id="Calque_2-2"><g id="Layer_1"><g><polygon class="cls-10" points="10.48 0 776 0 776 0 776 1360.93 776 1360.93 10.48 1360.93 10.48 1360.93 10.48 0"/><g><path class="cls-18" d="M284.91,415.73s32.11-35.48,48.93-35.48,66.81,91.53,86.96,85.68,26.94-34.23,53.45-4.59c26.51,29.64,133.21,143.8,133.21,143.8l-138.28,31.92-184.28-221.33h0Z"/><path class="cls-15" d="M35.76,288.53s53.44-49.99,79.09-50c24.33,0,98.21,129.84,98.21,129.84l-114.72,69.71-62.57-149.55h0Z"/><path class="cls-20" d="M776.01,660.86s-72.91-132.55-107.06-132.55c-8.65,0-115.98,90.21-183.39,42.34-54.38-38.62-180.64-179.58-227.4-232.62-9.66-10.96-27.3-12.9-39.56-4.3-23.98,16.82-60.45,39.41-69.82,28.54C134.51,345.7,10.48,184.05,10.48,184.05v476.81H776.01Z"/><path class="cls-4" d="M10.48,387.45s29.1-44.46,53.91-32.17c13.37,6.63,93.79,108.8,108.07,112.58,14.27,3.78,39.76-38.79,87.68,19.87,47.92,58.66,175.35,173.13,175.35,173.13H10.48V387.45Z"/></g><rect class="cls-26" x="10.48" y="660.86" width="765.52" height="590.81"/><g><path class="cls-3" d="M64.3,37.05c-3.38,0-6.12,2.74-6.12,6.12s2.74,6.12,6.12,6.12,6.12-2.74,6.12-6.12-2.74-6.12-6.12-6.12Z"/><path class="cls-8" d="M178.82,80.89c-3.38,0-6.12,2.74-6.12,6.12s2.74,6.12,6.12,6.12,6.12-2.74,6.12-6.12-2.74-6.12-6.12-6.12"/><path class="cls-28" d="M490.44,43.17c-3.38,0-6.12,2.74-6.12,6.12s2.74,6.12,6.12,6.12,6.12-2.74,6.12-6.12-2.74-6.12-6.12-6.12"/><path class="cls-7" d="M701.3,66.95c-2.16,0-3.91,1.75-3.91,3.91s1.75,3.91,3.91,3.91,3.91-1.75,3.91-3.91-1.75-3.91-3.91-3.91"/><path class="cls-2" d="M281,35.35c-2.16,0-3.91,1.75-3.91,3.91s1.75,3.91,3.91,3.91,3.91-1.75,3.91-3.91-1.75-3.91-3.91-3.91"/><path class="cls-17" d="M551.61,33.14c-2.16,0-3.91,1.75-3.91,3.91s1.75,3.91,3.91,3.91,3.91-1.75,3.91-3.91-1.75-3.91-3.91-3.91"/></g><g><path class="cls-1" d="M263.34,715.01c-81.23,0-153.55,2.11-200.38,5.38,46.83,3.28,119.15,5.38,200.38,5.38s153.55-2.11,200.38-5.38c-46.83-3.28-119.15-5.38-200.38-5.38"/><path class="cls-24" d="M253.52,757.42c-30.43,0-57.53,2.11-75.08,5.38,17.55,3.28,44.64,5.38,75.08,5.38s57.53-2.11,75.08-5.38c-17.54-3.28-44.64-5.38-75.08-5.38"/><path class="cls-21" d="M642.44,695.86c-41.84,0-79.09,2.11-103.2,5.38,24.12,3.28,61.37,5.38,103.2,5.38s79.09-2.1,103.2-5.38c-24.12-3.28-61.37-5.38-103.2-5.38"/><path class="cls-23" d="M736.44,717.7c-11.03,0-20.85,1.05-27.21,2.69,6.36,1.64,16.18,2.69,27.21,2.69s20.85-1.05,27.21-2.69c-6.36-1.64-16.18-2.69-27.21-2.69"/><path class="cls-19" d="M389.41,741.91c-13.78,0-26.05,1.05-33.99,2.69,7.94,1.64,20.21,2.69,33.99,2.69s26.05-1.05,33.99-2.69c-7.94-1.64-20.21-2.69-33.99-2.69"/><path class="cls-11" d="M347.65,799.82c-30.05,0-56.81,1.05-74.14,2.69,17.33,1.64,44.09,2.69,74.14,2.69s56.81-1.05,74.14-2.69c-17.33-1.64-44.09-2.69-74.14-2.69"/><path class="cls-6" d="M157.73,786.36c-30.05,0-56.81,1.05-74.14,2.69,17.33,1.64,44.09,2.69,74.14,2.69s56.81-1.05,74.14-2.69c-17.33-1.64-44.09-2.69-74.14-2.69"/><path class="cls-29" d="M423.4,777.18c-30.05,0-56.81,1.05-74.14,2.69,17.33,1.64,44.08,2.69,74.14,2.69s56.81-1.05,74.14-2.69c-17.33-1.64-44.09-2.69-74.14-2.69"/></g><path class="cls-27" d="M0,795.23s194.46-1.11,482.32,228.92c282.93,226.09,205.32,336.26,205.32,336.26L0,1326.43V795.23Z"/><path class="cls-22" d="M44.51,801.8l-12.54,21.03h12.29c-1.41,2.95-3,6.14-4.8,9.51h95.91c-1.8-3.37-3.39-6.55-4.8-9.51h12.29l-12.54-21.03,15.9,.74c-5.04-6.2-11.76-15.78-11.76-15.78h7.56c-9.99-7.41-21.62-33.34-28.93-51.73l8.76,3.25-11.2-22.55h13.72c-17.22-14.09-36.96-77.22-36.96-77.22,0,0-19.74,63.13-36.96,77.22h13.72l-11.2,22.55,8.76-3.25c-7.31,18.38-18.94,44.32-28.93,51.73h7.56s-6.72,9.58-11.76,15.78l15.9-.74h.01Z"/><g><path class="cls-14" d="M10.48,1326.43c0,18.76,13.72,33.98,30.65,33.98H745.36c16.93,0,30.65-15.21,30.65-33.98V769.6C420.23,804.13,10.48,1015.6,10.48,1015.6v310.83h0Z"/><path class="cls-5" d="M0,1369.13H0s785.33,0,785.33,0h.01V769.61C420.35,804.64,0,951.67,0,951.67v417.46Z"/></g><path class="cls-13" d="M578.36,778.96l-21.09,35.38h20.68c-2.37,4.97-5.05,10.33-8.07,16h161.34c-3.02-5.67-5.71-11.03-8.07-16h20.68l-21.09-35.38,26.74,1.24c-8.48-10.43-19.79-26.55-19.79-26.55h12.72c-16.8-12.46-36.37-56.1-48.66-87.02l14.74,5.47-18.84-37.93h23.08c-28.97-23.71-62.19-129.91-62.19-129.91,0,0-33.21,106.21-62.19,129.91h23.08l-18.84,37.93,14.74-5.47c-12.3,30.93-31.86,74.56-48.66,87.02h12.72s-11.31,16.12-19.79,26.55l26.74-1.24h.02Z"/><path class="cls-9" d="M426.3,815.3l-16.95,28.43h16.62c-1.9,3.99-4.06,8.3-6.49,12.86h129.69c-2.43-4.55-4.59-8.86-6.49-12.86h16.62l-16.95-28.43,21.5,.99c-6.82-8.38-15.9-21.34-15.9-21.34h10.22c-13.5-10.01-29.23-45.09-39.11-69.95l11.85,4.4-15.15-30.49h18.56c-23.29-19.06-49.98-104.42-49.98-104.42,0,0-26.7,85.37-49.98,104.42h18.55l-15.15,30.49,11.85-4.4c-9.88,24.86-25.61,59.93-39.11,69.95h10.22s-9.09,12.96-15.9,21.34l21.5-.99h-.02Z"/><g><g><path class="cls-16" d="M607.46,441.93c-30.8,0-55.78-24.97-55.78-55.77s24.97-55.78,55.78-55.78,55.78,24.97,55.78,55.78-24.97,55.77-55.78,55.77m0-120.11c-35.53,0-64.34,28.8-64.34,64.34s28.8,64.34,64.34,64.34,64.34-28.8,64.34-64.34-28.8-64.34-64.34-64.34"/><path class="cls-25" d="M607.46,330.38c-30.8,0-55.78,24.97-55.78,55.78s24.97,55.77,55.78,55.77,55.78-24.97,55.78-55.77-24.97-55.78-55.78-55.78"/></g><circle class="cls-12" cx="607.43" cy="386.13" r="45.91" transform="translate(87.38 883.74) rotate(-76.18)"/></g></g></g></g></svg>