<?xml version="1.0" encoding="utf-8"?>
<!-- Generator: Adobe Illustrator 26.5.0, SVG Export Plug-In . SVG Version: 6.00 Build 0)  -->
<svg version="1.1" id="Calque_2_00000051343075406120425380000017520342317963296679_"
	 xmlns="http://www.w3.org/2000/svg" xmlns:xlink="http://www.w3.org/1999/xlink" x="0px" y="0px" viewBox="0 0 785.3 1369.1"
	 style="enable-background:new 0 0 785.3 1369.1;" xml:space="preserve">
<style type="text/css">
	.st0{fill:url(#SVGID_1_);}
	.st1{fill:url(#SVGID_00000124858959843861899160000003541968281190274210_);}
	.st2{fill:url(#SVGID_00000018226571764024424730000017336934103068501925_);}
	.st3{fill:url(#SVGID_00000029036126586216141740000008560259897441411748_);}
	.st4{fill:url(#SVGID_00000026870532078532336240000016937417496395247236_);}
	.st5{fill:url(#SVGID_00000005239948420732122020000001416953783937354933_);}
	.st6{fill:url(#SVGID_00000158030769870996725400000014428486322138916787_);}
	.st7{fill:url(#SVGID_00000109735115779469239050000003198299826001126819_);}
	.st8{fill:url(#SVGID_00000093889572219224652740000009960279477934990769_);}
	.st9{fill:url(#SVGID_00000163063364434820184530000003776324969090770819_);}
	.st10{fill:url(#SVGID_00000003092954845057481580000012694490520559273117_);}
	.st11{fill:url(#SVGID_00000134250399646769203130000001110562775084811153_);}
	.st12{fill:url(#SVGID_00000169535716056609866880000000353804922002704281_);}
	.st13{fill:url(#SVGID_00000052086410749174952500000006327533783214549388_);}
	.st14{fill:url(#SVGID_00000119816493015887813620000005972089919766415790_);}
	.st15{fill:url(#SVGID_00000004538785319969137370000012853932567647752590_);}
	.st16{fill:url(#SVGID_00000036939239489243406210000013268773023959133608_);}
	.st17{fill:url(#SVGID_00000170242985736728252550000005664393254996648338_);}
	.st18{fill:url(#SVGID_00000165204777846341088190000004835642636421058181_);}
	.st19{fill:url(#SVGID_00000057129682794301438780000003869958873975760783_);}
	.st20{fill:url(#SVGID_00000048491718541758410760000000025409136621135019_);}
	.st21{fill:url(#SVGID_00000044878863575888658580000011456935565830730687_);}
	.st22{fill:url(#SVGID_00000129906967032727175860000016097829414311407033_);}
	.st23{fill:url(#SVGID_00000132052987989525619560000009571048451676595127_);}
	.st24{fill:url(#SVGID_00000073681449818162725520000010330785933363233186_);}
	.st25{fill:url(#SVGID_00000095304989195506961480000012315016312409840017_);}
	.st26{fill:url(#SVGID_00000173134174363395727720000014641933486737772422_);}
	.st27{fill:url(#SVGID_00000175319589053065954340000004188110860762235833_);}
	.st28{opacity:0.5;fill:#FBF8F1;enable-background:new    ;}
</style>
<g id="Calque_2-2">
	<g id="Layer_1">
		<g>
			
				<linearGradient id="SVGID_1_" gradientUnits="userSpaceOnUse" x1="392.6649" y1="105.5399" x2="392.6649" y2="-495.3602" gradientTransform="matrix(1 0 0 1 0 526.0002)">
				<stop  offset="0" style="stop-color:#FFF5DC"/>
				<stop  offset="1" style="stop-color:#F46494"/>
			</linearGradient>
			<polygon class="st0" points="0,0 785.3,0 785.3,0 785.3,1360.9 785.3,1360.9 0,1360.9 0,1360.9 			"/>
			<g>
				
					<linearGradient id="SVGID_00000068676102748100296000000000988522847402172560_" gradientUnits="userSpaceOnUse" x1="431.7999" y1="39.395" x2="464.1784" y2="-77.8724" gradientTransform="matrix(1 0 0 1 0 526.0002)">
					<stop  offset="0" style="stop-color:#F495A9"/>
					<stop  offset="1" style="stop-color:#E0688D"/>
				</linearGradient>
				<path style="fill:url(#SVGID_00000068676102748100296000000000988522847402172560_);" d="M281.5,415.7c0,0,32.9-35.5,50.2-35.5
					s68.5,91.5,89.2,85.7s27.6-34.2,54.8-4.6C503,491,612.4,605.1,612.4,605.1l-141.9,31.9L281.5,415.7L281.5,415.7L281.5,415.7z"/>
				
					<linearGradient id="SVGID_00000152255251353936402540000008942862743669670787_" gradientUnits="userSpaceOnUse" x1="109.2803" y1="-171.6763" x2="138.531" y2="-271.2866" gradientTransform="matrix(1 0 0 1 0 526.0002)">
					<stop  offset="0" style="stop-color:#F495A9"/>
					<stop  offset="1" style="stop-color:#E0688D"/>
				</linearGradient>
				<path style="fill:url(#SVGID_00000152255251353936402540000008942862743669670787_);" d="M25.9,288.5c0,0,54.8-50,81.1-50
					c25,0,100.8,129.8,100.8,129.8L90.1,438.1L25.9,288.5L25.9,288.5L25.9,288.5z"/>
				
					<linearGradient id="SVGID_00000002367889499259570200000017063377100874274702_" gradientUnits="userSpaceOnUse" x1="313.3092" y1="42.6399" x2="371.8859" y2="-65.2602" gradientTransform="matrix(1 0 0 1 0 526.0002)">
					<stop  offset="0" style="stop-color:#E879A6"/>
					<stop  offset="1" style="stop-color:#CC5C8A"/>
				</linearGradient>
				<path style="fill:url(#SVGID_00000002367889499259570200000017063377100874274702_);" d="M785.3,660.9
					c0,0-74.8-132.5-109.8-132.5c-8.9,0-119,90.2-188.1,42.3C431.6,532,302.1,391.1,254.1,338c-9.9-11-28-12.9-40.6-4.3
					c-24.6,16.8-62,39.4-71.6,28.5C127.2,345.7,0,184.1,0,184.1v476.8H785.3z"/>
				
					<linearGradient id="SVGID_00000075130989290632026930000003698425094914324924_" gradientUnits="userSpaceOnUse" x1="218.0041" y1="-50.8301" x2="218.0041" y2="100.4698" gradientTransform="matrix(1 0 0 1 0 526.0002)">
					<stop  offset="0" style="stop-color:#D86498"/>
					<stop  offset="1" style="stop-color:#B74E7E"/>
				</linearGradient>
				<path style="fill:url(#SVGID_00000075130989290632026930000003698425094914324924_);" d="M0,387.5c0,0,29.9-44.5,55.3-32.2
					c13.7,6.6,96.2,108.8,110.9,112.6c14.6,3.8,40.8-38.8,89.9,19.9S436,660.9,436,660.9H0V387.5z"/>
			</g>
			
				<linearGradient id="SVGID_00000034795495873260938500000011190283189099502259_" gradientUnits="userSpaceOnUse" x1="392.6649" y1="140.6699" x2="392.6649" y2="290.0898" gradientTransform="matrix(1 0 0 1 0 526.0002)">
				<stop  offset="0" style="stop-color:#FCB6DC"/>
				<stop  offset="1" style="stop-color:#E2A3E2"/>
			</linearGradient>
			<rect y="660.9" style="fill:url(#SVGID_00000034795495873260938500000011190283189099502259_);" width="785.3" height="590.8"/>
			<g>
				
					<linearGradient id="SVGID_00000043457540949916404310000018395654359104992435_" gradientUnits="userSpaceOnUse" x1="-548.3828" y1="-482.8302" x2="68.0567" y2="-482.8302" gradientTransform="matrix(1 0 0 1 0 526.0002)">
					<stop  offset="0" style="stop-color:#D86498"/>
					<stop  offset="1" style="stop-color:#B74E7E"/>
				</linearGradient>
				<path style="fill:url(#SVGID_00000043457540949916404310000018395654359104992435_);" d="M55.2,37c-3.5,0-6.3,2.7-6.3,6.1
					s2.8,6.1,6.3,6.1c3.5,0,6.3-2.7,6.3-6.1S58.7,37,55.2,37z"/>
				
					<linearGradient id="SVGID_00000013914043183047267990000003464357676738751887_" gradientUnits="userSpaceOnUse" x1="-498.5338" y1="-304.5061" x2="-497.5138" y2="-304.5061" gradientTransform="matrix(3.609095e-14 -589.41 -589.41 -3.609095e-14 -179306.2344 -293211.5)">
					<stop  offset="0" style="stop-color:#D86498"/>
					<stop  offset="1" style="stop-color:#B74E7E"/>
				</linearGradient>
				<path style="fill:url(#SVGID_00000013914043183047267990000003464357676738751887_);" d="M172.7,80.9c-3.5,0-6.3,2.7-6.3,6.1
					s2.8,6.1,6.3,6.1s6.3-2.7,6.3-6.1S176.2,80.9,172.7,80.9"/>
				
					<linearGradient id="SVGID_00000145027992383155574050000012641739842924603545_" gradientUnits="userSpaceOnUse" x1="-498.5338" y1="-305.0485" x2="-497.5138" y2="-305.0485" gradientTransform="matrix(3.609095e-14 -589.41 -589.41 -3.609095e-14 -179306.2344 -293211.5)">
					<stop  offset="0" style="stop-color:#D86498"/>
					<stop  offset="1" style="stop-color:#B74E7E"/>
				</linearGradient>
				<path style="fill:url(#SVGID_00000145027992383155574050000012641739842924603545_);" d="M492.4,43.2c-3.5,0-6.3,2.7-6.3,6.1
					s2.8,6.1,6.3,6.1s6.3-2.7,6.3-6.1S495.8,43.2,492.4,43.2"/>
				
					<linearGradient id="SVGID_00000071531209814865482070000008583099898138243245_" gradientUnits="userSpaceOnUse" x1="-498.5338" y1="-305.4155" x2="-497.5138" y2="-305.4155" gradientTransform="matrix(3.609095e-14 -589.41 -589.41 -3.609095e-14 -179306.2344 -293211.5)">
					<stop  offset="0" style="stop-color:#D86498"/>
					<stop  offset="1" style="stop-color:#B74E7E"/>
				</linearGradient>
				<path style="fill:url(#SVGID_00000071531209814865482070000008583099898138243245_);" d="M708.7,66.9c-2.2,0-4,1.8-4,3.9
					s1.8,3.9,4,3.9c2.2,0,4-1.8,4-3.9S710.9,66.9,708.7,66.9"/>
				
					<linearGradient id="SVGID_00000107557638765620945430000017230258995494435774_" gradientUnits="userSpaceOnUse" x1="-498.5338" y1="-304.6839" x2="-497.5138" y2="-304.6839" gradientTransform="matrix(3.609095e-14 -589.41 -589.41 -3.609095e-14 -179306.2344 -293211.5)">
					<stop  offset="0" style="stop-color:#D86498"/>
					<stop  offset="1" style="stop-color:#B74E7E"/>
				</linearGradient>
				<path style="fill:url(#SVGID_00000107557638765620945430000017230258995494435774_);" d="M277.5,35.3c-2.2,0-4,1.8-4,3.9
					s1.8,3.9,4,3.9s4-1.8,4-3.9S279.7,35.3,277.5,35.3"/>
				
					<linearGradient id="SVGID_00000179618310156444760610000015672992198877970838_" gradientUnits="userSpaceOnUse" x1="-498.5338" y1="-305.1549" x2="-497.5138" y2="-305.1549" gradientTransform="matrix(3.609095e-14 -589.41 -589.41 -3.609095e-14 -179306.2344 -293211.5)">
					<stop  offset="0" style="stop-color:#D86498"/>
					<stop  offset="1" style="stop-color:#B74E7E"/>
				</linearGradient>
				<path style="fill:url(#SVGID_00000179618310156444760610000015672992198877970838_);" d="M555.1,33.1c-2.2,0-4,1.8-4,3.9
					s1.8,3.9,4,3.9c2.2,0,4-1.8,4-3.9S557.3,33.1,555.1,33.1"/>
			</g>
			<g>
				
					<linearGradient id="SVGID_00000131362438381106053010000002655204289228037045_" gradientUnits="userSpaceOnUse" x1="-500.2859" y1="-291.7721" x2="-499.2659" y2="-291.7721" gradientTransform="matrix(9.440190e-15 154.17 154.17 -9.440190e-15 45241.9023 77813.8359)">
					<stop  offset="0" style="stop-color:#FCCEE4"/>
					<stop  offset="1" style="stop-color:#EBC2E8"/>
				</linearGradient>
				<path style="fill:url(#SVGID_00000131362438381106053010000002655204289228037045_);" d="M259.4,715
					c-83.3,0-157.5,2.1-205.6,5.4c48,3.3,122.2,5.4,205.6,5.4s157.5-2.1,205.6-5.4C416.9,717.1,342.7,715,259.4,715"/>
				
					<linearGradient id="SVGID_00000018223861753621254580000001576893707914677399_" gradientUnits="userSpaceOnUse" x1="-500.2859" y1="-291.8374" x2="-499.2659" y2="-291.8374" gradientTransform="matrix(9.440190e-15 154.17 154.17 -9.440190e-15 45241.9023 77813.8359)">
					<stop  offset="0" style="stop-color:#FCCEE4"/>
					<stop  offset="1" style="stop-color:#EBC2E8"/>
				</linearGradient>
				<path style="fill:url(#SVGID_00000018223861753621254580000001576893707914677399_);" d="M249.3,757.4c-31.2,0-59,2.1-77,5.4
					c18,3.3,45.8,5.4,77,5.4s59-2.1,77-5.4C308.4,759.5,280.6,757.4,249.3,757.4"/>
				
					<linearGradient id="SVGID_00000023964883161826142680000014932010611251940248_" gradientUnits="userSpaceOnUse" x1="-500.2859" y1="-289.2495" x2="-499.2659" y2="-289.2495" gradientTransform="matrix(9.440190e-15 154.17 154.17 -9.440190e-15 45241.9023 77813.8359)">
					<stop  offset="0" style="stop-color:#FCCEE4"/>
					<stop  offset="1" style="stop-color:#EBC2E8"/>
				</linearGradient>
				<path style="fill:url(#SVGID_00000023964883161826142680000014932010611251940248_);" d="M648.3,695.9
					c-42.9,0-81.1,2.1-105.9,5.4c24.7,3.3,63,5.4,105.9,5.4s81.1-2.1,105.9-5.4C729.4,698,691.2,695.9,648.3,695.9"/>
				
					<linearGradient id="SVGID_00000062886991866738991450000009379379108848165268_" gradientUnits="userSpaceOnUse" x1="-500.2859" y1="-288.624" x2="-499.2659" y2="-288.624" gradientTransform="matrix(9.440190e-15 154.17 154.17 -9.440190e-15 45241.9023 77813.8359)">
					<stop  offset="0" style="stop-color:#FCCEE4"/>
					<stop  offset="1" style="stop-color:#EBC2E8"/>
				</linearGradient>
				<path style="fill:url(#SVGID_00000062886991866738991450000009379379108848165268_);" d="M744.7,717.7c-11.3,0-21.4,1-27.9,2.7
					c6.5,1.6,16.6,2.7,27.9,2.7c11.3,0,21.4-1,27.9-2.7C766.1,718.8,756.1,717.7,744.7,717.7"/>
				
					<linearGradient id="SVGID_00000158714994100308790160000016395860409393579421_" gradientUnits="userSpaceOnUse" x1="-500.2859" y1="-290.9332" x2="-499.2659" y2="-290.9332" gradientTransform="matrix(9.440190e-15 154.17 154.17 -9.440190e-15 45241.9023 77813.8359)">
					<stop  offset="0" style="stop-color:#FCCEE4"/>
					<stop  offset="1" style="stop-color:#EBC2E8"/>
				</linearGradient>
				<path style="fill:url(#SVGID_00000158714994100308790160000016395860409393579421_);" d="M388.7,741.9c-14.1,0-26.7,1-34.9,2.7
					c8.1,1.6,20.7,2.7,34.9,2.7s26.7-1,34.9-2.7C415.5,743,402.9,741.9,388.7,741.9"/>
				
					<linearGradient id="SVGID_00000163784182584309844230000013839934773914766774_" gradientUnits="userSpaceOnUse" x1="-500.2859" y1="-291.2111" x2="-499.2659" y2="-291.2111" gradientTransform="matrix(9.440190e-15 154.17 154.17 -9.440190e-15 45241.9023 77813.8359)">
					<stop  offset="0" style="stop-color:#FCCEE4"/>
					<stop  offset="1" style="stop-color:#EBC2E8"/>
				</linearGradient>
				<path style="fill:url(#SVGID_00000163784182584309844230000013839934773914766774_);" d="M345.9,799.8c-30.8,0-58.3,1-76.1,2.7
					c17.8,1.6,45.2,2.7,76.1,2.7s58.3-1,76.1-2.7C404.2,800.9,376.7,799.8,345.9,799.8"/>
				
					<linearGradient id="SVGID_00000181773754444665374520000015142925362338937222_" gradientUnits="userSpaceOnUse" x1="-500.2859" y1="-292.4748" x2="-499.2659" y2="-292.4748" gradientTransform="matrix(9.440190e-15 154.17 154.17 -9.440190e-15 45241.9023 77813.8359)">
					<stop  offset="0" style="stop-color:#FCCEE4"/>
					<stop  offset="1" style="stop-color:#EBC2E8"/>
				</linearGradient>
				<path style="fill:url(#SVGID_00000181773754444665374520000015142925362338937222_);" d="M151.1,786.4c-30.8,0-58.3,1-76.1,2.7
					c17.8,1.6,45.2,2.7,76.1,2.7s58.3-1,76.1-2.7C209.3,787.4,181.9,786.4,151.1,786.4"/>
				
					<linearGradient id="SVGID_00000039820517683168752430000011104963573810838453_" gradientUnits="userSpaceOnUse" x1="-500.2859" y1="-290.707" x2="-499.2659" y2="-290.707" gradientTransform="matrix(9.440190e-15 154.17 154.17 -9.440190e-15 45241.9023 77813.8359)">
					<stop  offset="0" style="stop-color:#FCCEE4"/>
					<stop  offset="1" style="stop-color:#EBC2E8"/>
				</linearGradient>
				<path style="fill:url(#SVGID_00000039820517683168752430000011104963573810838453_);" d="M423.6,777.2c-30.8,0-58.3,1-76.1,2.7
					c17.8,1.6,45.2,2.7,76.1,2.7s58.3-1,76.1-2.7C481.9,778.2,454.4,777.2,423.6,777.2"/>
			</g>
			
				<linearGradient id="SVGID_00000145740569732476652100000013315437129017224635_" gradientUnits="userSpaceOnUse" x1="348.6901" y1="517.8699" x2="348.6901" y2="317.9799" gradientTransform="matrix(1 0 0 1 0 526.0002)">
				<stop  offset="0" style="stop-color:#9E4373"/>
				<stop  offset="1" style="stop-color:#662E55"/>
			</linearGradient>
			<path style="fill:url(#SVGID_00000145740569732476652100000013315437129017224635_);" d="M0,795.2c0,0,194.5-1.1,482.3,228.9
				c282.9,226.1,205.3,336.3,205.3,336.3L0,1326.4V795.2z"/>
			
				<linearGradient id="SVGID_00000037660538019181614220000005488774658164119706_" gradientUnits="userSpaceOnUse" x1="78.9207" y1="155.6198" x2="78.9207" y2="279.7598" gradientTransform="matrix(1 0 0 1 0 526.0002)">
				<stop  offset="0" style="stop-color:#9E4373"/>
				<stop  offset="1" style="stop-color:#662E55"/>
			</linearGradient>
			<path style="fill:url(#SVGID_00000037660538019181614220000005488774658164119706_);" d="M34.9,801.8l-12.9,21h12.6
				c-1.4,3-3.1,6.1-4.9,9.5h98.4c-1.8-3.4-3.5-6.5-4.9-9.5h12.6l-12.9-21l16.3,0.7c-5.2-6.2-12.1-15.8-12.1-15.8h7.8
				c-10.2-7.4-22.2-33.3-29.7-51.7l9,3.2l-11.5-22.5h14.1c-17.7-14.1-37.9-77.2-37.9-77.2S58.7,701.6,41,715.7h14.1l-11.5,22.5
				l9-3.2c-7.5,18.4-19.4,44.3-29.7,51.7h7.8c0,0-6.9,9.6-12.1,15.8L34.9,801.8C34.9,801.8,34.9,801.8,34.9,801.8z"/>
			<g>
				
					<linearGradient id="SVGID_00000114788319246555130050000002359214354991843770_" gradientUnits="userSpaceOnUse" x1="393.245" y1="25.7798" x2="393.245" y2="-640.3702" gradientTransform="matrix(1 0 0 1 0 526.0002)">
					<stop  offset="0" style="stop-color:#66305C"/>
					<stop  offset="1" style="stop-color:#421A3A"/>
				</linearGradient>
				<path style="fill:url(#SVGID_00000114788319246555130050000002359214354991843770_);" d="M10.5,1326.4c0,18.8,13.7,34,30.6,34
					h704.2c16.9,0,30.7-15.2,30.7-34V769.6c-355.8,34.5-765.5,246-765.5,246V1326.4L10.5,1326.4L10.5,1326.4z"/>
				
					<linearGradient id="SVGID_00000054258336572599392900000013070669545821585059_" gradientUnits="userSpaceOnUse" x1="392.67" y1="846.5698" x2="392.67" y2="359.6198" gradientTransform="matrix(1 0 0 1 0 526.0002)">
					<stop  offset="0" style="stop-color:#66305C"/>
					<stop  offset="1" style="stop-color:#421A3A"/>
				</linearGradient>
				<path style="fill:url(#SVGID_00000054258336572599392900000013070669545821585059_);" d="M0,1369.1L0,1369.1h785.3h0V769.6
					C420.4,804.6,0,951.7,0,951.7V1369.1z"/>
			</g>
			
				<linearGradient id="SVGID_00000033349656792613412960000006844853403157096890_" gradientUnits="userSpaceOnUse" x1="656.6231" y1="67.0498" x2="656.6231" y2="275.8898" gradientTransform="matrix(1 0 0 1 0 526.0002)">
				<stop  offset="9.000000e-02" style="stop-color:#66305C"/>
				<stop  offset="1" style="stop-color:#421A3A"/>
			</linearGradient>
			<path style="fill:url(#SVGID_00000033349656792613412960000006844853403157096890_);" d="M582.6,779l-21.6,35.4h21.2
				c-2.4,5-5.2,10.3-8.3,16h165.5c-3.1-5.7-5.9-11-8.3-16h21.2L730.7,779l27.4,1.2c-8.7-10.4-20.3-26.5-20.3-26.5h13
				c-17.2-12.5-37.3-56.1-49.9-87l15.1,5.5l-19.3-37.9h23.7c-29.7-23.7-63.8-129.9-63.8-129.9s-34.1,106.2-63.8,129.9h23.7
				l-19.3,37.9l15.1-5.5c-12.6,30.9-32.7,74.6-49.9,87h13c0,0-11.6,16.1-20.3,26.5L582.6,779L582.6,779L582.6,779z"/>
			
				<linearGradient id="SVGID_00000066503539424745361480000010146008828077701309_" gradientUnits="userSpaceOnUse" x1="486.1171" y1="74.9398" x2="486.1171" y2="280.2498" gradientTransform="matrix(1 0 0 1 0 526.0002)">
				<stop  offset="0" style="stop-color:#BC5E94"/>
				<stop  offset="3.000000e-02" style="stop-color:#B65A90"/>
				<stop  offset="0.16" style="stop-color:#934879"/>
				<stop  offset="0.29" style="stop-color:#7A3A69"/>
				<stop  offset="0.4" style="stop-color:#6B325F"/>
				<stop  offset="0.49" style="stop-color:#66305C"/>
				<stop  offset="1" style="stop-color:#421A3A"/>
			</linearGradient>
			<path style="fill:url(#SVGID_00000066503539424745361480000010146008828077701309_);" d="M426.6,815.3l-17.4,28.4h17.1
				c-1.9,4-4.2,8.3-6.7,12.9h133c-2.5-4.5-4.7-8.9-6.7-12.9H563l-17.4-28.4l22.1,1c-7-8.4-16.3-21.3-16.3-21.3h10.5
				c-13.8-10-30-45.1-40.1-70l12.2,4.4l-15.5-30.5h19c-23.9-19.1-51.3-104.4-51.3-104.4s-27.4,85.4-51.3,104.4h19l-15.5,30.5
				l12.2-4.4c-10.1,24.9-26.3,59.9-40.1,70h10.5c0,0-9.3,13-16.3,21.3L426.6,815.3L426.6,815.3L426.6,815.3z"/>
			<g>
				<g>
					
						<linearGradient id="SVGID_00000086662362242458180730000009365123076600707211_" gradientUnits="userSpaceOnUse" x1="-498.3238" y1="-306.7793" x2="-497.8038" y2="-306.7793" gradientTransform="matrix(3.609095e-14 -589.41 -589.41 -3.609095e-14 -180206.3594 -293178.5)">
						<stop  offset="0" style="stop-color:#FEF6E1"/>
						<stop  offset="1" style="stop-color:#F687AA"/>
					</linearGradient>
					<path style="fill:url(#SVGID_00000086662362242458180730000009365123076600707211_);" d="M612.4,441.9
						c-31.6,0-57.2-25-57.2-55.8s25.6-55.8,57.2-55.8c31.6,0,57.2,25,57.2,55.8S644,441.9,612.4,441.9 M612.4,321.8
						c-36.4,0-66,28.8-66,64.3s29.5,64.3,66,64.3s66-28.8,66-64.3S648.9,321.8,612.4,321.8"/>
					
						<linearGradient id="SVGID_00000053527246437097497480000016367108620861923482_" gradientUnits="userSpaceOnUse" x1="-498.3238" y1="-306.7793" x2="-497.8038" y2="-306.7793" gradientTransform="matrix(3.609095e-14 -589.41 -589.41 -3.609095e-14 -180206.3594 -293178.5)">
						<stop  offset="0" style="stop-color:#FDF6E5"/>
						<stop  offset="1" style="stop-color:#F7A2BB"/>
					</linearGradient>
					<path style="fill:url(#SVGID_00000053527246437097497480000016367108620861923482_);" d="M612.4,330.4
						c-31.6,0-57.2,25-57.2,55.8s25.6,55.8,57.2,55.8c31.6,0,57.2-25,57.2-55.8S644,330.4,612.4,330.4"/>
				</g>
				<ellipse class="st28" cx="612.4" cy="386.1" rx="47.1" ry="45.9"/>
			</g>
		</g>
	</g>
</g>
</svg>
