<?xml version="1.0" encoding="utf-8"?>
<!-- Generator: Adobe Illustrator 26.5.0, SVG Export Plug-In . SVG Version: 6.00 Build 0)  -->
<svg version="1.1" id="Calque_2_00000134247813877743299620000014654830975749983912_"
	 xmlns="http://www.w3.org/2000/svg" xmlns:xlink="http://www.w3.org/1999/xlink" x="0px" y="0px" viewBox="0 0 786.4 1369.7"
	 style="enable-background:new 0 0 786.4 1369.7;" xml:space="preserve">
<style type="text/css">
	.st0{fill:url(#SVGID_1_);}
	.st1{fill:url(#SVGID_00000006684089972083310220000012486303759114314386_);}
	.st2{fill:url(#SVGID_00000150786309183869237620000007703409591430192547_);}
	.st3{fill:url(#SVGID_00000083774354592162182450000003070955708338138027_);}
	.st4{fill:url(#SVGID_00000095313852899524257820000008719822114662561442_);}
	.st5{opacity:0.5;fill:#E0F9FC;enable-background:new    ;}
	.st6{fill:url(#SVGID_00000048459192277197920860000009675759664036364978_);}
	.st7{fill:url(#SVGID_00000037673016959534798250000003834275573655858575_);}
	.st8{fill:url(#SVGID_00000163783597917520031700000007224641245118579385_);}
	.st9{fill:url(#SVGID_00000146461058436372568890000006433349225167311013_);}
	.st10{fill:url(#SVGID_00000058559211244649356430000018200508985627611813_);}
	.st11{fill:url(#SVGID_00000157271255381461482490000004257069485153801908_);}
	.st12{fill:url(#SVGID_00000054232602516605418130000007422082494919165624_);}
	.st13{fill:url(#SVGID_00000108303940725305661810000008358744478025555116_);}
	.st14{fill:url(#SVGID_00000023960503212964463160000014168959063779384487_);}
	.st15{fill:url(#SVGID_00000168821599422728872270000010833422901694689209_);}
	.st16{fill:url(#SVGID_00000172426419164735335240000002585371794229630612_);}
	.st17{fill:url(#SVGID_00000080913305605707820960000006971244885769616820_);}
	.st18{fill:url(#SVGID_00000060008942832787887640000011564962520321796510_);}
	.st19{fill:url(#SVGID_00000160900559332609587890000007529443356645622207_);}
	.st20{fill:url(#SVGID_00000085225544209254098690000008418511029592353941_);}
	.st21{fill:url(#SVGID_00000147178785680699524990000001317276139476365972_);}
	.st22{fill:url(#SVGID_00000000180515668495143430000010687114004823077775_);}
	.st23{fill:url(#SVGID_00000106863180829223652010000012337847841208663231_);}
	
		.st24{fill:url(#SVGID_00000016763592481875544550000010707965748622517677_);stroke:url(#SVGID_00000071532641443298953730000013482219272847685774_);stroke-width:1.05;stroke-miterlimit:10;}
	.st25{fill:url(#SVGID_00000024682483964312245830000008038257132042627213_);}
	.st26{fill:url(#SVGID_00000140699168501752935230000010387331274979688100_);}
</style>
<g id="Layer_1">
	<g>
		
			<linearGradient id="SVGID_1_" gradientUnits="userSpaceOnUse" x1="393.76" y1="736.3499" x2="393.76" y2="1337.2499" gradientTransform="matrix(1 0 0 -1 0 1367.8899)">
			<stop  offset="0" style="stop-color:#A4E5F4"/>
			<stop  offset="0.3" style="stop-color:#60ACC4"/>
			<stop  offset="1" style="stop-color:#352968"/>
		</linearGradient>
		<rect x="11" y="0" class="st0" width="765.5" height="1360.9"/>
		<g>
			
				<linearGradient id="SVGID_00000083057326104032130640000016596610729236486808_" gradientUnits="userSpaceOnUse" x1="431.5519" y1="802.592" x2="464.0719" y2="920.3721" gradientTransform="matrix(1 0 0 -1 0 1367.8899)">
				<stop  offset="0" style="stop-color:#5599B7"/>
				<stop  offset="1" style="stop-color:#407DA0"/>
			</linearGradient>
			<path style="fill:url(#SVGID_00000083057326104032130640000016596610729236486808_);" d="M285.4,415.7c0,0,32.1-35.5,48.9-35.5
				s66.8,91.5,87,85.7s26.9-34.2,53.5-4.6C501.3,491,608,605.1,608,605.1l-138.3,31.9L285.4,415.7L285.4,415.7z"/>
			
				<linearGradient id="SVGID_00000138533628220755961530000000677598812846707121_" gradientUnits="userSpaceOnUse" x1="117.3654" y1="1013.6882" x2="146.6054" y2="1113.2283" gradientTransform="matrix(1 0 0 -1 0 1367.8899)">
				<stop  offset="0" style="stop-color:#5599B7"/>
				<stop  offset="1" style="stop-color:#407DA0"/>
			</linearGradient>
			<path style="fill:url(#SVGID_00000138533628220755961530000000677598812846707121_);" d="M36.3,288.5c0,0,53.4-50,79.1-50
				c24.3,0,98.2,129.8,98.2,129.8L98.9,438.1L36.3,288.5L36.3,288.5z"/>
			
				<linearGradient id="SVGID_00000041277816842405790590000005139152031221586338_" gradientUnits="userSpaceOnUse" x1="314.5869" y1="799.6115" x2="372.0769" y2="905.4915" gradientTransform="matrix(1 0 0 -1 0 1367.8899)">
				<stop  offset="0" style="stop-color:#496E9B"/>
				<stop  offset="1" style="stop-color:#3C578E"/>
			</linearGradient>
			<path style="fill:url(#SVGID_00000041277816842405790590000005139152031221586338_);" d="M776.5,660.9
				c0,0-72.9-132.5-107.1-132.5c-8.7,0-116,90.2-183.4,42.3C431.7,532,305.4,391.1,258.7,338c-9.7-11-27.3-12.9-39.6-4.3
				c-24,16.8-60.4,39.4-69.8,28.5C135,345.7,11,184.1,11,184.1v476.8H776.5z"/>
			
				<linearGradient id="SVGID_00000050623096719585050590000013117029806763645328_" gradientUnits="userSpaceOnUse" x1="223.505" y1="892.7198" x2="223.505" y2="741.4199" gradientTransform="matrix(1 0 0 -1 0 1367.8899)">
				<stop  offset="0" style="stop-color:#373C77"/>
				<stop  offset="1" style="stop-color:#455589"/>
			</linearGradient>
			<path style="fill:url(#SVGID_00000050623096719585050590000013117029806763645328_);" d="M11,387.5c0,0,29.1-44.5,53.9-32.2
				c13.4,6.6,93.8,108.8,108.1,112.6c14.3,3.8,39.8-38.8,87.7,19.9S436,660.9,436,660.9H11V387.5z"/>
		</g>
		<path class="st5" d="M641.7,416.7c-28.8,0-52.2-23.4-52.2-52.2c0-9.5,2.6-18.5,7-26.2c-18.9,7.8-32.3,26.5-32.3,48.2
			c0,28.8,23.3,52.2,52.2,52.2c19.3,0,36.1-10.4,45.1-26C655.4,415.3,648.7,416.7,641.7,416.7z"/>
		
			<linearGradient id="SVGID_00000083795431040698146970000001100798509121823925_" gradientUnits="userSpaceOnUse" x1="393.76" y1="701.2198" x2="393.76" y2="551.7998" gradientTransform="matrix(1 0 0 -1 0 1367.8899)">
			<stop  offset="0" style="stop-color:#6EB2CC"/>
			<stop  offset="1" style="stop-color:#718FCC"/>
		</linearGradient>
		
			<rect x="11" y="660.9" style="fill:url(#SVGID_00000083795431040698146970000001100798509121823925_);" width="765.5" height="590.8"/>
		<g>
			
				<linearGradient id="SVGID_00000097481573063212906740000010449358752044938659_" gradientUnits="userSpaceOnUse" x1="-523.54" y1="1324.7198" x2="77.35" y2="1324.7198" gradientTransform="matrix(1 0 0 -1 0 1367.8899)">
				<stop  offset="0" style="stop-color:#CCF4FA"/>
				<stop  offset="0" style="stop-color:#CCF4FA"/>
				<stop  offset="0.1" style="stop-color:#C2F0F7"/>
				<stop  offset="0.25" style="stop-color:#A8E5EF"/>
				<stop  offset="0.4" style="stop-color:#8ADAE6"/>
				<stop  offset="0.47" style="stop-color:#87D2E2"/>
				<stop  offset="0.58" style="stop-color:#7EBDD9"/>
				<stop  offset="0.72" style="stop-color:#719CCB"/>
				<stop  offset="0.87" style="stop-color:#5E6DB6"/>
				<stop  offset="1" style="stop-color:#4C40A3"/>
			</linearGradient>
			<path style="fill:url(#SVGID_00000097481573063212906740000010449358752044938659_);" d="M64.8,37c-3.4,0-6.1,2.7-6.1,6.1
				s2.7,6.1,6.1,6.1s6.1-2.7,6.1-6.1S68.2,37,64.8,37z"/>
			
				<linearGradient id="SVGID_00000127015358528201409310000005687480541316673413_" gradientUnits="userSpaceOnUse" x1="-1250.8239" y1="1410.6827" x2="-1249.8038" y2="1410.6827" gradientTransform="matrix(3.609095e-14 -589.41 589.41 3.609095e-14 -831291.1875 -736612.75)">
				<stop  offset="0" style="stop-color:#CCF4FA"/>
				<stop  offset="0" style="stop-color:#CCF4FA"/>
				<stop  offset="0.1" style="stop-color:#C2F0F7"/>
				<stop  offset="0.25" style="stop-color:#A8E5EF"/>
				<stop  offset="0.4" style="stop-color:#8ADAE6"/>
				<stop  offset="0.47" style="stop-color:#87D2E2"/>
				<stop  offset="0.58" style="stop-color:#7EBDD9"/>
				<stop  offset="0.72" style="stop-color:#719CCB"/>
				<stop  offset="0.87" style="stop-color:#5E6DB6"/>
				<stop  offset="1" style="stop-color:#4C40A3"/>
			</linearGradient>
			<path style="fill:url(#SVGID_00000127015358528201409310000005687480541316673413_);" d="M179.3,80.9c-3.4,0-6.1,2.7-6.1,6.1
				s2.7,6.1,6.1,6.1s6.1-2.7,6.1-6.1S182.7,80.9,179.3,80.9"/>
			
				<linearGradient id="SVGID_00000175320077999614420970000012863182412350064818_" gradientUnits="userSpaceOnUse" x1="-1250.8239" y1="1411.2115" x2="-1249.8038" y2="1411.2115" gradientTransform="matrix(3.609095e-14 -589.41 589.41 3.609095e-14 -831291.1875 -736612.75)">
				<stop  offset="0" style="stop-color:#CCF4FA"/>
				<stop  offset="0" style="stop-color:#CCF4FA"/>
				<stop  offset="0.1" style="stop-color:#C2F0F7"/>
				<stop  offset="0.25" style="stop-color:#A8E5EF"/>
				<stop  offset="0.4" style="stop-color:#8ADAE6"/>
				<stop  offset="0.47" style="stop-color:#87D2E2"/>
				<stop  offset="0.58" style="stop-color:#7EBDD9"/>
				<stop  offset="0.72" style="stop-color:#719CCB"/>
				<stop  offset="0.87" style="stop-color:#5E6DB6"/>
				<stop  offset="1" style="stop-color:#4C40A3"/>
			</linearGradient>
			<path style="fill:url(#SVGID_00000175320077999614420970000012863182412350064818_);" d="M491,43.2c-3.4,0-6.1,2.7-6.1,6.1
				s2.7,6.1,6.1,6.1s6.1-2.7,6.1-6.1S494.4,43.2,491,43.2"/>
			
				<linearGradient id="SVGID_00000139264321225014529890000010161077466766106282_" gradientUnits="userSpaceOnUse" x1="-1250.8239" y1="1411.5692" x2="-1249.8038" y2="1411.5692" gradientTransform="matrix(3.609095e-14 -589.41 589.41 3.609095e-14 -831291.1875 -736612.75)">
				<stop  offset="0" style="stop-color:#CCF4FA"/>
				<stop  offset="0" style="stop-color:#CCF4FA"/>
				<stop  offset="0.1" style="stop-color:#C2F0F7"/>
				<stop  offset="0.25" style="stop-color:#A8E5EF"/>
				<stop  offset="0.4" style="stop-color:#8ADAE6"/>
				<stop  offset="0.47" style="stop-color:#87D2E2"/>
				<stop  offset="0.58" style="stop-color:#7EBDD9"/>
				<stop  offset="0.72" style="stop-color:#719CCB"/>
				<stop  offset="0.87" style="stop-color:#5E6DB6"/>
				<stop  offset="1" style="stop-color:#4C40A3"/>
			</linearGradient>
			<path style="fill:url(#SVGID_00000139264321225014529890000010161077466766106282_);" d="M701.8,66.9c-2.2,0-3.9,1.8-3.9,3.9
				s1.8,3.9,3.9,3.9s3.9-1.8,3.9-3.9S704,66.9,701.8,66.9"/>
			
				<linearGradient id="SVGID_00000062895905581262255530000012199801178525803706_" gradientUnits="userSpaceOnUse" x1="-1250.8239" y1="1410.8562" x2="-1249.8038" y2="1410.8562" gradientTransform="matrix(3.609095e-14 -589.41 589.41 3.609095e-14 -831291.1875 -736612.75)">
				<stop  offset="0" style="stop-color:#CCF4FA"/>
				<stop  offset="0" style="stop-color:#CCF4FA"/>
				<stop  offset="0.1" style="stop-color:#C2F0F7"/>
				<stop  offset="0.25" style="stop-color:#A8E5EF"/>
				<stop  offset="0.4" style="stop-color:#8ADAE6"/>
				<stop  offset="0.47" style="stop-color:#87D2E2"/>
				<stop  offset="0.58" style="stop-color:#7EBDD9"/>
				<stop  offset="0.72" style="stop-color:#719CCB"/>
				<stop  offset="0.87" style="stop-color:#5E6DB6"/>
				<stop  offset="1" style="stop-color:#4C40A3"/>
			</linearGradient>
			<path style="fill:url(#SVGID_00000062895905581262255530000012199801178525803706_);" d="M281.5,35.3c-2.2,0-3.9,1.8-3.9,3.9
				s1.8,3.9,3.9,3.9s3.9-1.8,3.9-3.9S283.7,35.3,281.5,35.3"/>
			
				<linearGradient id="SVGID_00000170278887601721239130000016885743491547653291_" gradientUnits="userSpaceOnUse" x1="-1250.8239" y1="1411.3153" x2="-1249.8038" y2="1411.3153" gradientTransform="matrix(3.609095e-14 -589.41 589.41 3.609095e-14 -831291.1875 -736612.75)">
				<stop  offset="0" style="stop-color:#CCF4FA"/>
				<stop  offset="0" style="stop-color:#CCF4FA"/>
				<stop  offset="0.1" style="stop-color:#C2F0F7"/>
				<stop  offset="0.25" style="stop-color:#A8E5EF"/>
				<stop  offset="0.4" style="stop-color:#8ADAE6"/>
				<stop  offset="0.47" style="stop-color:#87D2E2"/>
				<stop  offset="0.58" style="stop-color:#7EBDD9"/>
				<stop  offset="0.72" style="stop-color:#719CCB"/>
				<stop  offset="0.87" style="stop-color:#5E6DB6"/>
				<stop  offset="1" style="stop-color:#4C40A3"/>
			</linearGradient>
			<path style="fill:url(#SVGID_00000170278887601721239130000016885743491547653291_);" d="M552.1,33.1c-2.2,0-3.9,1.8-3.9,3.9
				s1.8,3.9,3.9,3.9s3.9-1.8,3.9-3.9S554.3,33.1,552.1,33.1"/>
		</g>
		<g>
			
				<linearGradient id="SVGID_00000093148498639287575910000011642965838125748877_" gradientUnits="userSpaceOnUse" x1="-1250.4159" y1="1391.7562" x2="-1249.3959" y2="1391.7562" gradientTransform="matrix(9.440190e-15 154.17 -154.17 9.440190e-15 214830.9375 193457.9375)">
				<stop  offset="0" style="stop-color:#9AC8D7"/>
				<stop  offset="0" style="stop-color:#9AC8D7"/>
				<stop  offset="1" style="stop-color:#9CB0D7"/>
			</linearGradient>
			<path style="fill:url(#SVGID_00000093148498639287575910000011642965838125748877_);" d="M263.9,715c-81.2,0-153.6,2.1-200.4,5.4
				c46.8,3.3,119.1,5.4,200.4,5.4s153.5-2.1,200.4-5.4C417.4,717.1,345.1,715,263.9,715"/>
			
				<linearGradient id="SVGID_00000148653503113789634470000004870426960951166886_" gradientUnits="userSpaceOnUse" x1="-1250.4159" y1="1391.8199" x2="-1249.3959" y2="1391.8199" gradientTransform="matrix(9.440190e-15 154.17 -154.17 9.440190e-15 214830.9375 193457.9375)">
				<stop  offset="0" style="stop-color:#9AC8D7"/>
				<stop  offset="0" style="stop-color:#9AC8D7"/>
				<stop  offset="1" style="stop-color:#9CB0D7"/>
			</linearGradient>
			<path style="fill:url(#SVGID_00000148653503113789634470000004870426960951166886_);" d="M254.1,757.4c-30.4,0-57.5,2.1-75.1,5.4
				c17.6,3.3,44.6,5.4,75.1,5.4s57.5-2.1,75.1-5.4C311.6,759.5,284.5,757.4,254.1,757.4"/>
			
				<linearGradient id="SVGID_00000074430257588133793040000013608258142160871870_" gradientUnits="userSpaceOnUse" x1="-1250.4159" y1="1389.2974" x2="-1249.3959" y2="1389.2974" gradientTransform="matrix(9.440190e-15 154.17 -154.17 9.440190e-15 214830.9375 193457.9375)">
				<stop  offset="0" style="stop-color:#9AC8D7"/>
				<stop  offset="0" style="stop-color:#9AC8D7"/>
				<stop  offset="1" style="stop-color:#9CB0D7"/>
			</linearGradient>
			<path style="fill:url(#SVGID_00000074430257588133793040000013608258142160871870_);" d="M643,695.9c-41.8,0-79.1,2.1-103.2,5.4
				c24.1,3.3,61.4,5.4,103.2,5.4s79.1-2.1,103.2-5.4C722,698,684.8,695.9,643,695.9"/>
			
				<linearGradient id="SVGID_00000167391193474333162980000013553702870998762379_" gradientUnits="userSpaceOnUse" x1="-1250.4159" y1="1388.6876" x2="-1249.3959" y2="1388.6876" gradientTransform="matrix(9.440190e-15 154.17 -154.17 9.440190e-15 214830.9375 193457.9375)">
				<stop  offset="0" style="stop-color:#9AC8D7"/>
				<stop  offset="0" style="stop-color:#9AC8D7"/>
				<stop  offset="1" style="stop-color:#9CB0D7"/>
			</linearGradient>
			<path style="fill:url(#SVGID_00000167391193474333162980000013553702870998762379_);" d="M737,717.7c-11,0-20.8,1-27.2,2.7
				c6.4,1.6,16.2,2.7,27.2,2.7s20.8-1,27.2-2.7C757.8,718.8,748,717.7,737,717.7"/>
			
				<linearGradient id="SVGID_00000049913562206211054220000003286770381903104437_" gradientUnits="userSpaceOnUse" x1="-1250.4159" y1="1390.9386" x2="-1249.3959" y2="1390.9386" gradientTransform="matrix(9.440190e-15 154.17 -154.17 9.440190e-15 214830.9375 193457.9375)">
				<stop  offset="0" style="stop-color:#9AC8D7"/>
				<stop  offset="0" style="stop-color:#9AC8D7"/>
				<stop  offset="1" style="stop-color:#9CB0D7"/>
			</linearGradient>
			<path style="fill:url(#SVGID_00000049913562206211054220000003286770381903104437_);" d="M389.9,741.9c-13.8,0-26,1-34,2.7
				c7.9,1.6,20.2,2.7,34,2.7s26-1,34-2.7C416,743,403.7,741.9,389.9,741.9"/>
			
				<linearGradient id="SVGID_00000045584438738704939450000004662326966813730201_" gradientUnits="userSpaceOnUse" x1="-1250.4159" y1="1391.2095" x2="-1249.3959" y2="1391.2095" gradientTransform="matrix(9.440190e-15 154.17 -154.17 9.440190e-15 214830.9375 193457.9375)">
				<stop  offset="0" style="stop-color:#9AC8D7"/>
				<stop  offset="0" style="stop-color:#9AC8D7"/>
				<stop  offset="1" style="stop-color:#9CB0D7"/>
			</linearGradient>
			<path style="fill:url(#SVGID_00000045584438738704939450000004662326966813730201_);" d="M348.2,799.8c-30,0-56.8,1-74.1,2.7
				c17.3,1.6,44.1,2.7,74.1,2.7s56.8-1,74.1-2.7C405,800.9,378.2,799.8,348.2,799.8"/>
			
				<linearGradient id="SVGID_00000025421880847908623200000003202079584357822396_" gradientUnits="userSpaceOnUse" x1="-1250.4159" y1="1392.4414" x2="-1249.3959" y2="1392.4414" gradientTransform="matrix(9.440190e-15 154.17 -154.17 9.440190e-15 214830.9375 193457.9375)">
				<stop  offset="0" style="stop-color:#9AC8D7"/>
				<stop  offset="0" style="stop-color:#9AC8D7"/>
				<stop  offset="1" style="stop-color:#9CB0D7"/>
			</linearGradient>
			<path style="fill:url(#SVGID_00000025421880847908623200000003202079584357822396_);" d="M158.2,786.4c-30.1,0-56.8,1-74.1,2.7
				c17.3,1.6,44.1,2.7,74.1,2.7s56.8-1,74.1-2.7C215.1,787.4,188.3,786.4,158.2,786.4"/>
			
				<linearGradient id="SVGID_00000059307476717901142180000016495720298541888433_" gradientUnits="userSpaceOnUse" x1="-1250.4159" y1="1390.7181" x2="-1249.3959" y2="1390.7181" gradientTransform="matrix(9.440190e-15 154.17 -154.17 9.440190e-15 214830.9375 193457.9375)">
				<stop  offset="0" style="stop-color:#9AC8D7"/>
				<stop  offset="0" style="stop-color:#9AC8D7"/>
				<stop  offset="1" style="stop-color:#9CB0D7"/>
			</linearGradient>
			<path style="fill:url(#SVGID_00000059307476717901142180000016495720298541888433_);" d="M423.9,777.2c-30,0-56.8,1-74.1,2.7
				c17.3,1.6,44.1,2.7,74.1,2.7s56.8-1,74.1-2.7C480.7,778.2,454,777.2,423.9,777.2"/>
		</g>
		
			<linearGradient id="SVGID_00000009592105560686923810000001158032725493058491_" gradientUnits="userSpaceOnUse" x1="349.2101" y1="324.0198" x2="349.2101" y2="523.9099" gradientTransform="matrix(1 0 0 -1 0 1367.8899)">
			<stop  offset="0" style="stop-color:#3B4072"/>
			<stop  offset="1" style="stop-color:#252851"/>
		</linearGradient>
		<path style="fill:url(#SVGID_00000009592105560686923810000001158032725493058491_);" d="M0.5,795.2c0,0,194.5-1.1,482.3,228.9
			c282.9,226.1,205.3,336.3,205.3,336.3l-687.6-34V795.2z"/>
		
			<linearGradient id="SVGID_00000055665954022407719190000008434319136644218517_" gradientUnits="userSpaceOnUse" x1="87.94" y1="686.2698" x2="87.94" y2="562.1298" gradientTransform="matrix(1 0 0 -1 0 1367.8899)">
			<stop  offset="0" style="stop-color:#3B4072"/>
			<stop  offset="1" style="stop-color:#252851"/>
		</linearGradient>
		<path style="fill:url(#SVGID_00000055665954022407719190000008434319136644218517_);" d="M45,801.8l-12.5,21h12.3
			c-1.4,3-3,6.1-4.8,9.5h95.9c-1.8-3.4-3.4-6.5-4.8-9.5h12.3l-12.5-21l15.9,0.7c-5-6.2-11.8-15.8-11.8-15.8h7.6
			c-10-7.4-21.6-33.3-28.9-51.7l8.8,3.2l-11.2-22.5h13.7c-17.2-14.1-37-77.2-37-77.2s-19.7,63.1-37,77.2h13.7l-11.2,22.5l8.8-3.2
			c-7.3,18.4-18.9,44.3-28.9,51.7h7.6c0,0-6.7,9.6-11.8,15.8L45,801.8L45,801.8z"/>
		<g>
			
				<linearGradient id="SVGID_00000142864489412614021320000001901508603252979112_" gradientUnits="userSpaceOnUse" x1="393.765" y1="816.1098" x2="393.765" y2="1482.2599" gradientTransform="matrix(1 0 0 -1 0 1367.8899)">
				<stop  offset="0" style="stop-color:#A4E5F4"/>
				<stop  offset="0.4" style="stop-color:#60ACC4"/>
				<stop  offset="1" style="stop-color:#352968"/>
			</linearGradient>
			<path style="fill:url(#SVGID_00000142864489412614021320000001901508603252979112_);" d="M11,1326.4c0,18.8,13.7,34,30.7,34
				h704.2c16.9,0,30.7-15.2,30.7-34V769.6c-355.8,34.5-765.5,246-765.5,246V1326.4L11,1326.4z"/>
			
				<linearGradient id="SVGID_00000144297527892829748450000001601813219554283408_" gradientUnits="userSpaceOnUse" x1="393.19" y1="-5.2031" x2="393.19" y2="482.1692" gradientTransform="matrix(1 0 0 -1 0 1367.8899)">
				<stop  offset="0" style="stop-color:#373766"/>
				<stop  offset="1" style="stop-color:#19193D"/>
			</linearGradient>
			
				<linearGradient id="SVGID_00000013152629599007776060000018314313076392822917_" gradientUnits="userSpaceOnUse" x1="393.19" y1="-1.7652" x2="393.19" y2="598.8577" gradientTransform="matrix(1 0 0 -1 0 1367.8899)">
				<stop  offset="0" style="stop-color:#373766"/>
				<stop  offset="1" style="stop-color:#19193D"/>
			</linearGradient>
			
				<path style="fill:url(#SVGID_00000144297527892829748450000001601813219554283408_);stroke:url(#SVGID_00000013152629599007776060000018314313076392822917_);stroke-width:1.05;stroke-miterlimit:10;" d="
				M0.5,1369.1L0.5,1369.1h785.3v0.5v-600c-365,35-785.3,182.1-785.3,182.1V1369.1z"/>
		</g>
		
			<linearGradient id="SVGID_00000077294956616729885080000015004901518458825894_" gradientUnits="userSpaceOnUse" x1="651.0599" y1="774.8398" x2="651.0599" y2="565.9998" gradientTransform="matrix(1 0 0 -1 0 1367.8899)">
			<stop  offset="0" style="stop-color:#373766"/>
			<stop  offset="1" style="stop-color:#19193D"/>
		</linearGradient>
		<path style="fill:url(#SVGID_00000077294956616729885080000015004901518458825894_);" d="M578.9,779l-21.1,35.4h20.7
			c-2.4,5-5,10.3-8.1,16h161.3c-3-5.7-5.7-11-8.1-16h20.7L723.3,779l26.7,1.2c-8.5-10.4-19.8-26.5-19.8-26.5h12.7
			c-16.8-12.5-36.4-56.1-48.7-87l14.7,5.5l-18.8-37.9h23.1c-29-23.7-62.2-129.9-62.2-129.9s-33.2,106.2-62.2,129.9h23.1l-18.8,37.9
			l14.7-5.5c-12.3,30.9-31.9,74.6-48.7,87h12.7c0,0-11.3,16.1-19.8,26.5L578.9,779L578.9,779z"/>
		
			<linearGradient id="SVGID_00000154385567146698554850000010935533001742011832_" gradientUnits="userSpaceOnUse" x1="484.8549" y1="766.9498" x2="484.8549" y2="561.6398" gradientTransform="matrix(1 0 0 -1 0 1367.8899)">
			<stop  offset="0" style="stop-color:#373766"/>
			<stop  offset="1" style="stop-color:#19193D"/>
		</linearGradient>
		<path style="fill:url(#SVGID_00000154385567146698554850000010935533001742011832_);" d="M426.8,815.3l-17,28.4h16.6
			c-1.9,4-4.1,8.3-6.5,12.9h129.7c-2.4-4.5-4.6-8.9-6.5-12.9h16.6l-17-28.4l21.5,1c-6.8-8.4-15.9-21.3-15.9-21.3h10.2
			c-13.5-10-29.2-45.1-39.1-70l11.8,4.4l-15.2-30.5h18.6c-23.3-19.1-50-104.4-50-104.4s-26.7,85.4-50,104.4h18.5l-15.1,30.5
			l11.9-4.4c-9.9,24.9-25.6,59.9-39.1,70h10.2c0,0-9.1,13-15.9,21.3L426.8,815.3L426.8,815.3z"/>
	</g>
</g>
</svg>
