<?xml version="1.0" encoding="utf-8"?>
<!-- Generator: Adobe Illustrator 26.5.0, SVG Export Plug-In . SVG Version: 6.00 Build 0)  -->
<svg version="1.1" id="Calque_2_00000134247813877743299620000014654830975749983912_"
	 xmlns="http://www.w3.org/2000/svg" xmlns:xlink="http://www.w3.org/1999/xlink" x="0px" y="0px" viewBox="0 0 786.4 1369.7"
	 style="enable-background:new 0 0 786.4 1369.7;" xml:space="preserve">
<style type="text/css">
	.st0{fill:url(#SVGID_1_);}
	.st1{fill:url(#SVGID_00000181048027700080740950000008935772434153537724_);}
	.st2{fill:url(#SVGID_00000100380154080069378540000011511814680112209072_);}
	.st3{fill:url(#SVGID_00000116928856132104047650000014480448845742202555_);}
	.st4{fill:url(#SVGID_00000100348619567407951030000014425719294632158360_);}
	.st5{opacity:0.5;fill:#E0F9FC;enable-background:new    ;}
	.st6{fill:url(#SVGID_00000165935131032584374460000013336444699208895649_);}
	.st7{fill:url(#SVGID_00000183209354080880413240000009822374459065436323_);}
	.st8{fill:url(#SVGID_00000109000687564893932350000015114468524324704677_);}
	.st9{fill:url(#SVGID_00000096772999242268898620000011649133570678410369_);}
	.st10{fill:url(#SVGID_00000044143052078086295620000008785592929434572929_);}
	.st11{fill:url(#SVGID_00000138535804368164233970000005047593064275463344_);}
	.st12{fill:url(#SVGID_00000123432026510412501010000014161491870735995803_);}
	.st13{fill:url(#SVGID_00000173867338604789124220000006528693036022750126_);}
	.st14{fill:url(#SVGID_00000163059171671698567400000010521902466781884604_);}
	.st15{fill:url(#SVGID_00000097458086830292823920000018076593922923756956_);}
	.st16{fill:url(#SVGID_00000074416087604551370050000006352216765184278700_);}
	.st17{fill:url(#SVGID_00000025425084213472262800000002369720337871868548_);}
	.st18{fill:url(#SVGID_00000096757457307442673190000003595486249528997510_);}
	.st19{fill:url(#SVGID_00000021809666257017322870000008267816177827449009_);}
	.st20{fill:url(#SVGID_00000082344938619506576770000017748125043992820864_);}
	.st21{fill:url(#SVGID_00000173863299682642615310000000545143207630646442_);}
	.st22{fill:url(#SVGID_00000084501826552247772360000005764453263368625287_);}
	.st23{fill:url(#SVGID_00000171683085386612332370000010480484377597867446_);}
	
		.st24{fill:url(#SVGID_00000057134345713287572930000009462148149485807764_);stroke:url(#SVGID_00000119095166527845264260000002050307626423165352_);stroke-width:1.05;stroke-miterlimit:10;}
	.st25{fill:url(#SVGID_00000059289510301859668220000001793971931605048199_);}
	.st26{fill:url(#SVGID_00000075855398902384968950000004936310851526314635_);}
</style>
<g id="Layer_1">
	<g>
		
			<linearGradient id="SVGID_1_" gradientUnits="userSpaceOnUse" x1="393.2" y1="105.5399" x2="393.2" y2="-495.36" gradientTransform="matrix(1 0 0 1 0 526.0001)">
			<stop  offset="0" style="stop-color:#A4E5F4"/>
			<stop  offset="0.3" style="stop-color:#60ACC4"/>
			<stop  offset="1" style="stop-color:#352968"/>
		</linearGradient>
		<rect y="0" class="st0" width="786.4" height="1360.9"/>
		<g>
			
				<linearGradient id="SVGID_00000139295645396877688460000015441276542616644773_" gradientUnits="userSpaceOnUse" x1="432.411" y1="39.3954" x2="464.7816" y2="-77.8437" gradientTransform="matrix(1 0 0 1 0 526.0001)">
				<stop  offset="0" style="stop-color:#5599B7"/>
				<stop  offset="1" style="stop-color:#407DA0"/>
			</linearGradient>
			<path style="fill:url(#SVGID_00000139295645396877688460000015441276542616644773_);" d="M281.9,415.7c0,0,33-35.5,50.2-35.5
				s68.6,91.5,89.4,85.7c20.8-5.8,27.6-34.2,55-4.6c27.2,29.7,136.8,143.8,136.8,143.8L471.2,637L281.9,415.7L281.9,415.7z"/>
			
				<linearGradient id="SVGID_00000178920434009800972770000001656654174323926674_" gradientUnits="userSpaceOnUse" x1="109.4429" y1="-171.6658" x2="138.7047" y2="-271.2801" gradientTransform="matrix(1 0 0 1 0 526.0001)">
				<stop  offset="0" style="stop-color:#5599B7"/>
				<stop  offset="1" style="stop-color:#407DA0"/>
			</linearGradient>
			<path style="fill:url(#SVGID_00000178920434009800972770000001656654174323926674_);" d="M26,288.5c0,0,54.9-50,81.3-50
				c25,0,100.9,129.8,100.9,129.8L90.3,438.1L26,288.5L26,288.5z"/>
			
				<linearGradient id="SVGID_00000087370669508544821750000015478298071386853268_" gradientUnits="userSpaceOnUse" x1="313.8384" y1="42.6611" x2="372.4859" y2="-65.3506" gradientTransform="matrix(1 0 0 1 0 526.0001)">
				<stop  offset="0" style="stop-color:#496E9B"/>
				<stop  offset="1" style="stop-color:#3C578E"/>
			</linearGradient>
			<path style="fill:url(#SVGID_00000087370669508544821750000015478298071386853268_);" d="M786.4,660.9c0,0-74.9-132.5-110-132.5
				c-8.9,0-119.2,90.2-188.4,42.3C432.2,532,302.4,391.1,254.5,338c-10-11-28-12.9-40.7-4.3c-24.7,16.8-62,39.4-71.7,28.5
				C127.4,345.7,0,184.1,0,184.1v476.8H786.4z"/>
			
				<linearGradient id="SVGID_00000118385161516016967880000015089260868200753303_" gradientUnits="userSpaceOnUse" x1="218.3018" y1="-50.83" x2="218.3018" y2="100.4699" gradientTransform="matrix(1 0 0 1 0 526.0001)">
				<stop  offset="0" style="stop-color:#373C77"/>
				<stop  offset="1" style="stop-color:#455589"/>
			</linearGradient>
			<path style="fill:url(#SVGID_00000118385161516016967880000015089260868200753303_);" d="M0,387.5c0,0,29.9-44.5,55.4-32.2
				c13.8,6.6,96.4,108.8,111.1,112.6c14.7,3.8,40.9-38.8,90.1,19.9s180.1,173.1,180.1,173.1H0V387.5z"/>
		</g>
		<path class="st5" d="M647.9,416.7c-29.6,0-53.6-23.4-53.6-52.2c0-9.5,2.7-18.5,7.2-26.2c-19.4,7.8-33.2,26.5-33.2,48.2
			c0,28.8,23.9,52.2,53.6,52.2c19.8,0,37.1-10.4,46.3-26C662,415.3,655.1,416.7,647.9,416.7z"/>
		
			<linearGradient id="SVGID_00000172401495988155422580000005699975508072758940_" gradientUnits="userSpaceOnUse" x1="393.2" y1="140.67" x2="393.2" y2="290.09" gradientTransform="matrix(1 0 0 1 0 526.0001)">
			<stop  offset="0" style="stop-color:#6EB2CC"/>
			<stop  offset="1" style="stop-color:#718FCC"/>
		</linearGradient>
		<rect y="660.9" style="fill:url(#SVGID_00000172401495988155422580000005699975508072758940_);" width="786.4" height="590.8"/>
		<g>
			
				<linearGradient id="SVGID_00000154400869964005695700000013292657392834292400_" gradientUnits="userSpaceOnUse" x1="-549.1342" y1="-482.9001" x2="68.1615" y2="-482.9001" gradientTransform="matrix(1 0 0 1 0 526.0001)">
				<stop  offset="0" style="stop-color:#CCF4FA"/>
				<stop  offset="0" style="stop-color:#CCF4FA"/>
				<stop  offset="0.1" style="stop-color:#C2F0F7"/>
				<stop  offset="0.25" style="stop-color:#A8E5EF"/>
				<stop  offset="0.4" style="stop-color:#8ADAE6"/>
				<stop  offset="0.47" style="stop-color:#87D2E2"/>
				<stop  offset="0.58" style="stop-color:#7EBDD9"/>
				<stop  offset="0.72" style="stop-color:#719CCB"/>
				<stop  offset="0.87" style="stop-color:#5E6DB6"/>
				<stop  offset="1" style="stop-color:#4C40A3"/>
			</linearGradient>
			<path style="fill:url(#SVGID_00000154400869964005695700000013292657392834292400_);" d="M55.3,37c-3.5,0-6.3,2.7-6.3,6.1
				s2.8,6.1,6.3,6.1c3.5,0,6.3-2.7,6.3-6.1S58.8,37,55.3,37z"/>
			
				<linearGradient id="SVGID_00000030449150267896999830000000327905513942536595_" gradientUnits="userSpaceOnUse" x1="-1452.3777" y1="-306.1248" x2="-1451.3577" y2="-306.1248" gradientTransform="matrix(3.609095e-14 -589.41 -589.41 -3.609095e-14 -180260.1094 -855410.5625)">
				<stop  offset="0" style="stop-color:#CCF4FA"/>
				<stop  offset="0" style="stop-color:#CCF4FA"/>
				<stop  offset="0.1" style="stop-color:#C2F0F7"/>
				<stop  offset="0.25" style="stop-color:#A8E5EF"/>
				<stop  offset="0.4" style="stop-color:#8ADAE6"/>
				<stop  offset="0.47" style="stop-color:#87D2E2"/>
				<stop  offset="0.58" style="stop-color:#7EBDD9"/>
				<stop  offset="0.72" style="stop-color:#719CCB"/>
				<stop  offset="0.87" style="stop-color:#5E6DB6"/>
				<stop  offset="1" style="stop-color:#4C40A3"/>
			</linearGradient>
			<path style="fill:url(#SVGID_00000030449150267896999830000000327905513942536595_);" d="M172.9,80.9c-3.5,0-6.3,2.7-6.3,6.1
				s2.8,6.1,6.3,6.1s6.3-2.7,6.3-6.1S176.4,80.9,172.9,80.9"/>
			
				<linearGradient id="SVGID_00000155115626266668512620000007467423416489639067_" gradientUnits="userSpaceOnUse" x1="-1452.3777" y1="-306.6681" x2="-1451.3577" y2="-306.6681" gradientTransform="matrix(3.609095e-14 -589.41 -589.41 -3.609095e-14 -180260.1094 -855410.5625)">
				<stop  offset="0" style="stop-color:#CCF4FA"/>
				<stop  offset="0" style="stop-color:#CCF4FA"/>
				<stop  offset="0.1" style="stop-color:#C2F0F7"/>
				<stop  offset="0.25" style="stop-color:#A8E5EF"/>
				<stop  offset="0.4" style="stop-color:#8ADAE6"/>
				<stop  offset="0.47" style="stop-color:#87D2E2"/>
				<stop  offset="0.58" style="stop-color:#7EBDD9"/>
				<stop  offset="0.72" style="stop-color:#719CCB"/>
				<stop  offset="0.87" style="stop-color:#5E6DB6"/>
				<stop  offset="1" style="stop-color:#4C40A3"/>
			</linearGradient>
			<path style="fill:url(#SVGID_00000155115626266668512620000007467423416489639067_);" d="M493.1,43.2c-3.5,0-6.3,2.7-6.3,6.1
				s2.8,6.1,6.3,6.1c3.5,0,6.3-2.7,6.3-6.1S496.6,43.2,493.1,43.2"/>
			
				<linearGradient id="SVGID_00000161592605770459018420000004146662177891475636_" gradientUnits="userSpaceOnUse" x1="-1452.3777" y1="-307.0355" x2="-1451.3577" y2="-307.0355" gradientTransform="matrix(3.609095e-14 -589.41 -589.41 -3.609095e-14 -180260.1094 -855410.5625)">
				<stop  offset="0" style="stop-color:#CCF4FA"/>
				<stop  offset="0" style="stop-color:#CCF4FA"/>
				<stop  offset="0.1" style="stop-color:#C2F0F7"/>
				<stop  offset="0.25" style="stop-color:#A8E5EF"/>
				<stop  offset="0.4" style="stop-color:#8ADAE6"/>
				<stop  offset="0.47" style="stop-color:#87D2E2"/>
				<stop  offset="0.58" style="stop-color:#7EBDD9"/>
				<stop  offset="0.72" style="stop-color:#719CCB"/>
				<stop  offset="0.87" style="stop-color:#5E6DB6"/>
				<stop  offset="1" style="stop-color:#4C40A3"/>
			</linearGradient>
			<path style="fill:url(#SVGID_00000161592605770459018420000004146662177891475636_);" d="M709.7,66.9c-2.3,0-4,1.8-4,3.9
				s1.8,3.9,4,3.9s4-1.8,4-3.9S711.9,66.9,709.7,66.9"/>
			
				<linearGradient id="SVGID_00000114765137737350820870000014540329689394675587_" gradientUnits="userSpaceOnUse" x1="-1452.3777" y1="-306.3029" x2="-1451.3577" y2="-306.3029" gradientTransform="matrix(3.609095e-14 -589.41 -589.41 -3.609095e-14 -180260.1094 -855410.5625)">
				<stop  offset="0" style="stop-color:#CCF4FA"/>
				<stop  offset="0" style="stop-color:#CCF4FA"/>
				<stop  offset="0.1" style="stop-color:#C2F0F7"/>
				<stop  offset="0.25" style="stop-color:#A8E5EF"/>
				<stop  offset="0.4" style="stop-color:#8ADAE6"/>
				<stop  offset="0.47" style="stop-color:#87D2E2"/>
				<stop  offset="0.58" style="stop-color:#7EBDD9"/>
				<stop  offset="0.72" style="stop-color:#719CCB"/>
				<stop  offset="0.87" style="stop-color:#5E6DB6"/>
				<stop  offset="1" style="stop-color:#4C40A3"/>
			</linearGradient>
			<path style="fill:url(#SVGID_00000114765137737350820870000014540329689394675587_);" d="M277.9,35.3c-2.3,0-4,1.8-4,3.9
				s1.8,3.9,4,3.9s4-1.8,4-3.9S280.1,35.3,277.9,35.3"/>
			
				<linearGradient id="SVGID_00000181069009334026590180000000602710168912938943_" gradientUnits="userSpaceOnUse" x1="-1452.3777" y1="-306.7745" x2="-1451.3577" y2="-306.7745" gradientTransform="matrix(3.609095e-14 -589.41 -589.41 -3.609095e-14 -180260.1094 -855410.5625)">
				<stop  offset="0" style="stop-color:#CCF4FA"/>
				<stop  offset="0" style="stop-color:#CCF4FA"/>
				<stop  offset="0.1" style="stop-color:#C2F0F7"/>
				<stop  offset="0.25" style="stop-color:#A8E5EF"/>
				<stop  offset="0.4" style="stop-color:#8ADAE6"/>
				<stop  offset="0.47" style="stop-color:#87D2E2"/>
				<stop  offset="0.58" style="stop-color:#7EBDD9"/>
				<stop  offset="0.72" style="stop-color:#719CCB"/>
				<stop  offset="0.87" style="stop-color:#5E6DB6"/>
				<stop  offset="1" style="stop-color:#4C40A3"/>
			</linearGradient>
			<path style="fill:url(#SVGID_00000181069009334026590180000000602710168912938943_);" d="M555.9,33.1c-2.3,0-4,1.8-4,3.9
				s1.8,3.9,4,3.9c2.2,0,4-1.8,4-3.9S558.1,33.1,555.9,33.1"/>
		</g>
		<g>
			
				<linearGradient id="SVGID_00000070797717027905019340000005258091658921030019_" gradientUnits="userSpaceOnUse" x1="-1454.1218" y1="-285.5826" x2="-1453.1018" y2="-285.5826" gradientTransform="matrix(9.440190e-15 154.17 154.17 -9.440190e-15 44288.0742 224863.2812)">
				<stop  offset="0" style="stop-color:#9AC8D7"/>
				<stop  offset="0" style="stop-color:#9AC8D7"/>
				<stop  offset="1" style="stop-color:#9CB0D7"/>
			</linearGradient>
			<path style="fill:url(#SVGID_00000070797717027905019340000005258091658921030019_);" d="M259.8,715c-83.4,0-157.8,2.1-205.9,5.4
				c48.1,3.3,122.4,5.4,205.9,5.4s157.7-2.1,205.9-5.4C417.5,717.1,343.2,715,259.8,715"/>
			
				<linearGradient id="SVGID_00000105394758465172709720000011004518661140628898_" gradientUnits="userSpaceOnUse" x1="-1454.1218" y1="-285.6479" x2="-1453.1018" y2="-285.6479" gradientTransform="matrix(9.440190e-15 154.17 154.17 -9.440190e-15 44288.0742 224863.2812)">
				<stop  offset="0" style="stop-color:#9AC8D7"/>
				<stop  offset="0" style="stop-color:#9AC8D7"/>
				<stop  offset="1" style="stop-color:#9CB0D7"/>
			</linearGradient>
			<path style="fill:url(#SVGID_00000105394758465172709720000011004518661140628898_);" d="M249.7,757.4c-31.2,0-59.1,2.1-77.2,5.4
				c18.1,3.3,45.8,5.4,77.2,5.4s59.1-2.1,77.2-5.4C308.8,759.5,281,757.4,249.7,757.4"/>
			
				<linearGradient id="SVGID_00000118368875727638665710000015806648209536901788_" gradientUnits="userSpaceOnUse" x1="-1454.1218" y1="-283.0565" x2="-1453.1018" y2="-283.0565" gradientTransform="matrix(9.440190e-15 154.17 154.17 -9.440190e-15 44288.0742 224863.2812)">
				<stop  offset="0" style="stop-color:#9AC8D7"/>
				<stop  offset="0" style="stop-color:#9AC8D7"/>
				<stop  offset="1" style="stop-color:#9CB0D7"/>
			</linearGradient>
			<path style="fill:url(#SVGID_00000118368875727638665710000015806648209536901788_);" d="M649.3,695.9c-42.9,0-81.3,2.1-106,5.4
				c24.8,3.3,63.1,5.4,106,5.4s81.3-2.1,106-5.4C730.4,698,692.2,695.9,649.3,695.9"/>
			
				<linearGradient id="SVGID_00000144337704746538746510000017793558686209034654_" gradientUnits="userSpaceOnUse" x1="-1454.1218" y1="-282.4301" x2="-1453.1018" y2="-282.4301" gradientTransform="matrix(9.440190e-15 154.17 154.17 -9.440190e-15 44288.0742 224863.2812)">
				<stop  offset="0" style="stop-color:#9AC8D7"/>
				<stop  offset="0" style="stop-color:#9AC8D7"/>
				<stop  offset="1" style="stop-color:#9CB0D7"/>
			</linearGradient>
			<path style="fill:url(#SVGID_00000144337704746538746510000017793558686209034654_);" d="M745.8,717.7c-11.3,0-21.4,1-27.9,2.7
				c6.6,1.6,16.6,2.7,27.9,2.7c11.3,0,21.4-1,27.9-2.7C767.2,718.8,757.1,717.7,745.8,717.7"/>
			
				<linearGradient id="SVGID_00000177471262777090217930000001945812396212192924_" gradientUnits="userSpaceOnUse" x1="-1454.1218" y1="-284.743" x2="-1453.1018" y2="-284.743" gradientTransform="matrix(9.440190e-15 154.17 154.17 -9.440190e-15 44288.0742 224863.2812)">
				<stop  offset="0" style="stop-color:#9AC8D7"/>
				<stop  offset="0" style="stop-color:#9AC8D7"/>
				<stop  offset="1" style="stop-color:#9CB0D7"/>
			</linearGradient>
			<path style="fill:url(#SVGID_00000177471262777090217930000001945812396212192924_);" d="M389.2,741.9c-14.2,0-26.7,1-34.9,2.7
				c8.1,1.6,20.8,2.7,34.9,2.7c14.2,0,26.7-1,34.9-2.7C416.1,743,403.4,741.9,389.2,741.9"/>
			
				<linearGradient id="SVGID_00000162343931966464789350000017830448086187062156_" gradientUnits="userSpaceOnUse" x1="-1454.1218" y1="-285.0209" x2="-1453.1018" y2="-285.0209" gradientTransform="matrix(9.440190e-15 154.17 154.17 -9.440190e-15 44288.0742 224863.2812)">
				<stop  offset="0" style="stop-color:#9AC8D7"/>
				<stop  offset="0" style="stop-color:#9AC8D7"/>
				<stop  offset="1" style="stop-color:#9CB0D7"/>
			</linearGradient>
			<path style="fill:url(#SVGID_00000162343931966464789350000017830448086187062156_);" d="M346.4,799.8c-30.8,0-58.4,1-76.1,2.7
				c17.8,1.6,45.3,2.7,76.1,2.7s58.4-1,76.1-2.7C404.8,800.9,377.2,799.8,346.4,799.8"/>
			
				<linearGradient id="SVGID_00000038407926116636696630000009381512861777314723_" gradientUnits="userSpaceOnUse" x1="-1454.1218" y1="-286.2869" x2="-1453.1018" y2="-286.2869" gradientTransform="matrix(9.440190e-15 154.17 154.17 -9.440190e-15 44288.0742 224863.2812)">
				<stop  offset="0" style="stop-color:#9AC8D7"/>
				<stop  offset="0" style="stop-color:#9AC8D7"/>
				<stop  offset="1" style="stop-color:#9CB0D7"/>
			</linearGradient>
			<path style="fill:url(#SVGID_00000038407926116636696630000009381512861777314723_);" d="M151.2,786.4c-30.9,0-58.4,1-76.1,2.7
				c17.8,1.6,45.3,2.7,76.1,2.7s58.4-1,76.1-2.7C209.7,787.4,182.1,786.4,151.2,786.4"/>
			
				<linearGradient id="SVGID_00000088112491173122677520000005694309198554065550_" gradientUnits="userSpaceOnUse" x1="-1454.1218" y1="-284.5164" x2="-1453.1018" y2="-284.5164" gradientTransform="matrix(9.440190e-15 154.17 154.17 -9.440190e-15 44288.0742 224863.2812)">
				<stop  offset="0" style="stop-color:#9AC8D7"/>
				<stop  offset="0" style="stop-color:#9AC8D7"/>
				<stop  offset="1" style="stop-color:#9CB0D7"/>
			</linearGradient>
			<path style="fill:url(#SVGID_00000088112491173122677520000005694309198554065550_);" d="M424.2,777.2c-30.8,0-58.4,1-76.1,2.7
				c17.8,1.6,45.3,2.7,76.1,2.7s58.4-1,76.1-2.7C482.5,778.2,455.1,777.2,424.2,777.2"/>
		</g>
		
			<linearGradient id="SVGID_00000018915435300064928500000013088799979241212301_" gradientUnits="userSpaceOnUse" x1="349.1693" y1="517.8701" x2="349.1693" y2="317.9799" gradientTransform="matrix(1 0 0 1 0 526.0001)">
			<stop  offset="0" style="stop-color:#3B4072"/>
			<stop  offset="1" style="stop-color:#252851"/>
		</linearGradient>
		<path style="fill:url(#SVGID_00000018915435300064928500000013088799979241212301_);" d="M0.5,795.2c0,0,194.5-1.1,482.3,228.9
			c282.9,226.1,205.3,336.3,205.3,336.3l-687.6-34V795.2z"/>
		
			<linearGradient id="SVGID_00000119820966303160087070000001562003371395208594_" gradientUnits="userSpaceOnUse" x1="79.1023" y1="155.6201" x2="79.1023" y2="279.76" gradientTransform="matrix(1 0 0 1 0 526.0001)">
			<stop  offset="0" style="stop-color:#3B4072"/>
			<stop  offset="1" style="stop-color:#252851"/>
		</linearGradient>
		<path style="fill:url(#SVGID_00000119820966303160087070000001562003371395208594_);" d="M34.9,801.8l-12.8,21h12.6
			c-1.4,3-3.1,6.1-4.9,9.5h98.5c-1.8-3.4-3.5-6.5-4.9-9.5H136l-12.8-21l16.3,0.7c-5.1-6.2-12.1-15.8-12.1-15.8h7.8
			c-10.3-7.4-22.2-33.3-29.7-51.7l9,3.2L103,715.7h14.1c-17.7-14.1-38-77.2-38-77.2s-20.2,63.1-38,77.2h14.1l-11.5,22.5l9-3.2
			c-7.5,18.4-19.4,44.3-29.7,51.7h7.8c0,0-6.9,9.6-12.1,15.8L34.9,801.8L34.9,801.8z"/>
		<g>
			
				<linearGradient id="SVGID_00000067236695200682196450000009359360411390911916_" gradientUnits="userSpaceOnUse" x1="393.8" y1="25.78" x2="393.8" y2="-640.3701" gradientTransform="matrix(1 0 0 1 0 526.0001)">
				<stop  offset="0" style="stop-color:#A4E5F4"/>
				<stop  offset="0.4" style="stop-color:#60ACC4"/>
				<stop  offset="1" style="stop-color:#352968"/>
			</linearGradient>
			<path style="fill:url(#SVGID_00000067236695200682196450000009359360411390911916_);" d="M11,1326.4c0,18.8,13.7,34,30.7,34
				h704.2c16.9,0,30.7-15.2,30.7-34V769.6c-355.8,34.5-765.5,246-765.5,246v310.8H11z"/>
			
				<linearGradient id="SVGID_00000139277747709674741180000012183406746457889723_" gradientUnits="userSpaceOnUse" x1="393.15" y1="847.093" x2="393.15" y2="359.7206" gradientTransform="matrix(1 0 0 1 0 526.0001)">
				<stop  offset="0" style="stop-color:#373766"/>
				<stop  offset="1" style="stop-color:#19193D"/>
			</linearGradient>
			
				<linearGradient id="SVGID_00000039129551163643255640000017637806649420902847_" gradientUnits="userSpaceOnUse" x1="393.15" y1="843.6249" x2="393.15" y2="243.0222" gradientTransform="matrix(1 0 0 1 0 526.0001)">
				<stop  offset="0" style="stop-color:#373766"/>
				<stop  offset="1" style="stop-color:#19193D"/>
			</linearGradient>
			
				<path style="fill:url(#SVGID_00000139277747709674741180000012183406746457889723_);stroke:url(#SVGID_00000039129551163643255640000017637806649420902847_);stroke-width:1.05;stroke-miterlimit:10;" d="
				M0.5,1369.1L0.5,1369.1h785.3v0.5v-600c-365,35-785.3,182.1-785.3,182.1V1369.1z"/>
		</g>
		
			<linearGradient id="SVGID_00000118377499382907898070000011659544217349911977_" gradientUnits="userSpaceOnUse" x1="657.4736" y1="67.05" x2="657.4736" y2="275.89" gradientTransform="matrix(1 0 0 1 0 526.0001)">
			<stop  offset="0" style="stop-color:#373766"/>
			<stop  offset="1" style="stop-color:#19193D"/>
		</linearGradient>
		<path style="fill:url(#SVGID_00000118377499382907898070000011659544217349911977_);" d="M583.4,779l-21.7,35.4H583
			c-2.5,5-5.1,10.3-8.3,16h165.7c-3.1-5.7-5.9-11-8.3-16h21.3L731.7,779l27.4,1.2c-8.7-10.4-20.3-26.5-20.3-26.5h13
			c-17.3-12.5-37.4-56.1-50-87l15.1,5.5l-19.3-37.9h23.7c-29.8-23.7-63.9-129.9-63.9-129.9s-34.1,106.2-63.9,129.9h23.7L598,672.2
			l15.1-5.5c-12.6,30.9-32.8,74.6-50,87h13c0,0-11.6,16.1-20.3,26.5L583.4,779L583.4,779z"/>
		
			<linearGradient id="SVGID_00000025410471136732004290000004410962187858663586_" gradientUnits="userSpaceOnUse" x1="486.5817" y1="74.94" x2="486.5817" y2="280.2501" gradientTransform="matrix(1 0 0 1 0 526.0001)">
			<stop  offset="0" style="stop-color:#373766"/>
			<stop  offset="1" style="stop-color:#19193D"/>
		</linearGradient>
		<path style="fill:url(#SVGID_00000025410471136732004290000004410962187858663586_);" d="M427.2,815.3l-17.5,28.4h17.1
			c-2,4-4.2,8.3-6.7,12.9h133.2c-2.5-4.5-4.7-8.9-6.7-12.9h17.1l-17.5-28.4l22.1,1c-7-8.4-16.3-21.3-16.3-21.3h10.5
			c-13.9-10-30-45.1-40.2-70l12.1,4.4l-15.6-30.5h19.1c-23.9-19.1-51.4-104.4-51.4-104.4s-27.4,85.4-51.4,104.4h19l-15.5,30.5
			l12.2-4.4c-10.2,24.9-26.3,59.9-40.2,70h10.5c0,0-9.3,13-16.3,21.3L427.2,815.3L427.2,815.3z"/>
	</g>
</g>
</svg>
