<?xml version="1.0" encoding="UTF-8"?><svg id="Calque_2" xmlns="http://www.w3.org/2000/svg" viewBox="0 0 30.51 29.6"><defs><style>.cls-1{fill:#fffdfd;}</style></defs><g id="Layer_1"><g><path class="cls-1" d="M12.66,15.52c-3.82,0-7.63,.03-11.44-.03-.06,0-.11,0-.17-.02-.76-.13-.66-1.31,.11-1.33,0,0,.02,0,.03,0,7.34-.04,14.67,0,22.01-.05,.98,0,2.01-.15,2.91-.49,1.87-.72,3.03-2.63,2.98-4.57-.05-1.94-1.33-3.72-3.2-4.43-1.9-.72-3.85-.22-5.34,1.21-.01,0-.02,.02-.03,.03-.57,.53-1.46-.24-1.01-.87,.04-.06,.09-.11,.13-.17,1.87-2.06,4.94-2.52,7.42-1.24,2.47,1.28,3.88,4.13,3.33,6.77-.59,2.88-3.08,5.07-6.12,5.14-3.87,.09-7.75,.02-11.62,.02,0,0,0,0,0,.01Z"/><path class="cls-1" d="M8.18,19.06c2.41,0,4.82-.08,7.23,.02,2.7,.11,4.9,2.15,5.2,4.65,.3,2.49-1.31,4.89-3.81,5.64-2.06,.62-3.85,.04-5.28-1.49-.04-.04-.07-.08-.1-.12-.4-.63,.45-1.37,1.01-.87,0,0,0,0,.01,.01,1.17,1.09,2.45,1.58,4.02,1.1,1.84-.57,3-2.38,2.72-4.2-.3-1.92-1.94-3.3-4.16-3.33-4.41-.04-8.81-.01-13.22-.02-.41,0-.85,.09-1.23-.03-.08-.02-.15-.06-.22-.1-.47-.26-.47-.98,.03-1.19,.07-.03,.15-.05,.22-.05,2.53-.06,5.05-.03,7.58-.03,0,0,0,0,0,.01Z"/><path class="cls-1" d="M4.56,10.59c-1.29,0-2.59,.06-3.87-.04-.09,0-.18-.04-.27-.08-.53-.27-.47-1.1,.11-1.24,.04-.01,.09-.02,.13-.02,2.29-.06,4.58,.03,6.87-.06,.91-.03,1.89-.22,2.68-.63,2.04-1.08,2.54-3.57,1.22-5.44-1.29-1.83-3.85-2.18-5.6-.75-.32,.26-.53,.65-.86,.87-.05,.03-.1,.06-.16,.08-.41,.15-.85-.14-.89-.57-.02-.15,0-.27,.06-.33,.69-.7,1.39-1.48,2.26-1.88,2-.92,3.95-.55,5.56,.92,1.59,1.46,2.23,3.3,1.51,5.42-.76,2.22-2.41,3.44-4.69,3.69-1.33,.15-2.7,.03-4.05,.03,0,.01,0,.02,0,.03Z"/></g></g></svg>