<?xml version="1.0" encoding="utf-8"?>
<!-- Generator: Adobe Illustrator 26.5.0, SVG Export Plug-In . SVG Version: 6.00 Build 0)  -->
<svg version="1.1" id="Calque_2_00000147913043945112225720000012626622790654713230_"
	 xmlns="http://www.w3.org/2000/svg" xmlns:xlink="http://www.w3.org/1999/xlink" x="0px" y="0px" viewBox="0 0 33.2 46.6"
	 style="enable-background:new 0 0 33.2 46.6;" xml:space="preserve">
<style type="text/css">
	.st0{fill:#373766;}
</style>
<g id="Layer_1">
	<path class="st0" d="M1.5,21.4c-3.2-6.3-1-12.2,3.9-16.9c5-4.8,11-5.6,17.6-3.2c5,1.8,9.6,6.4,10.2,13.2c0.1,1.5-0.3,4.2-0.8,5.6
		c-3.5,9.6-9.3,17.9-15.3,26c-0.5,0.7-1.5,0.6-1.9-0.1C10.6,37.8,5.7,29.8,1.5,21.4z M16.3,24.2c4.4,0.2,8-3.2,8.1-7.6
		c0.1-4.3-3.2-7.8-7.5-7.9c-4.5-0.1-8.1,3.3-8,7.8C8.9,20.6,12.2,24.1,16.3,24.2z"/>
</g>
</svg>
