<?xml version="1.0" encoding="utf-8"?>
<!-- Generator: Adobe Illustrator 26.5.0, SVG Export Plug-In . SVG Version: 6.00 Build 0)  -->
<svg version="1.1" id="Calque_2_00000037674480946987587610000009152175798769885827_"
	 xmlns="http://www.w3.org/2000/svg" xmlns:xlink="http://www.w3.org/1999/xlink" x="0px" y="0px" viewBox="0 0 34.2 37.9"
	 style="enable-background:new 0 0 34.2 37.9;" xml:space="preserve">
<style type="text/css">
	.st0{fill:#FFFFFF;}
</style>
<g id="Layer_1">
	<path class="st0" d="M0,36.2V5.5c0-1,0.8-1.8,1.8-1.8h2.1c0.9,0,1.7-0.7,1.8-1.6l0-0.4C5.7,0.8,6.4,0,7.4,0h0.2
		c1,0,1.8,0.8,1.8,1.8l0,0c0,1,0.8,1.8,1.8,1.8H23c0.9,0,1.7-0.7,1.8-1.7V1.7C24.8,0.7,25.5,0,26.5,0h0.3c0.9,0,1.7,0.7,1.8,1.7
		l0,0.3c0,0.9,0.8,1.7,1.8,1.7h2.1c1,0,1.8,0.8,1.8,1.8v30.7c0,1-0.8,1.8-1.8,1.8H1.8C0.8,37.9,0,37.2,0,36.2L0,36.2z M3.9,15.1
		v17.2c0,1,0.8,1.8,1.8,1.8h23c1,0,1.8-0.8,1.8-1.8V15.1c0-1-0.8-1.8-1.8-1.8h-23C4.6,13.4,3.9,14.2,3.9,15.1z"/>
</g>
</svg>
