<?xml version="1.0" encoding="UTF-8"?><svg id="Calque_2" xmlns="http://www.w3.org/2000/svg" viewBox="0 0 33.19 46.6"><defs><style>.cls-1{fill:#fffdfd;}</style></defs><g id="Layer_1"><path class="cls-1" d="M1.49,21.39C-1.66,15.08,.44,9.15,5.39,4.51,10.44-.24,16.4-1.12,22.99,1.31c4.97,1.83,9.63,6.45,10.18,13.19,.12,1.46-.26,4.24-.78,5.64-3.54,9.6-9.28,17.89-15.29,26-.49,.66-1.49,.59-1.89-.12C10.59,37.84,5.69,29.79,1.49,21.39Zm14.83,2.86c4.43,.18,8.03-3.23,8.11-7.61,.08-4.32-3.23-7.81-7.52-7.93-4.48-.13-8.05,3.34-8.03,7.81,.02,4.09,3.35,7.57,7.44,7.73Z"/></g></svg>